<?xml version="1.0" encoding="UTF-8" standalone="no"?>
<svg
   xmlns:dc="http://purl.org/dc/elements/1.1/"
   xmlns:cc="http://creativecommons.org/ns#"
   xmlns:rdf="http://www.w3.org/1999/02/22-rdf-syntax-ns#"
   xmlns:svg="http://www.w3.org/2000/svg"
   xmlns="http://www.w3.org/2000/svg"
   id="svg2497"
   version="1.1"
   viewBox="0 0 206.83475 79.375"
   height="79.375mm"
   width="206.83475mm">
  <defs
     id="defs2491" />
  <metadata
     id="metadata2494">
    <rdf:RDF>
      <cc:Work
         rdf:about="">
        <dc:format>image/svg+xml</dc:format>
        <dc:type
           rdf:resource="http://purl.org/dc/dcmitype/StillImage" />
        <dc:title></dc:title>
      </cc:Work>
    </rdf:RDF>
  </metadata>
  <g
     transform="translate(62.227764,-67.058183)"
     id="layer1">
    <path
       style="clip-rule:evenodd;fill:#ffffff;fill-rule:evenodd;stroke-width:0.49658412"
       d="m 113.493,76.604513 h -5.12673 v -9.36955 h 5.12673 v 1.23749 a 9.6699826,9.6699826 0 0 0 -3.18211,-0.17678 v 2.82854 h 1.41477 l 1.76784,-0.17678 v 0.70713 l -1.76784,0.53035 h -1.41477 v 3.53568 l 3.18211,-0.17678 z m -12.19759,0 h -2.651764 l -1.59106,-2.82854 -0.88392,-1.41427 -0.17628,4.24281 h -1.94512 v -9.36955 h 2.82804 c 1.17889,0 2.06232,0.17679 2.65176,0.52986 0.589454,0.35357 0.883924,0.88392 0.883924,1.59105 0,1.41428 -0.765734,2.2982 -2.298194,2.65176 l 2.474984,3.88925 z m -16.087344,-4.77316 c 0,1.41427 -0.50105,2.62246 -1.50267,3.62407 -1.00161,1.00161 -2.32798,1.50266 -3.97763,1.50266 -1.06071,0 -2.18051,-0.35357 -3.3589,-1.0607 -1.17889,-0.70714 -1.76834,-2.00322 -1.76834,-3.88925 0,-3.3003 1.76834,-4.94995 5.30352,-4.94995 1.76834,0 3.09372,0.50105 3.97814,1.50266 0.88392,1.00211 1.32588,2.09162 1.32588,3.27051 z m -18.73861,-0.17679 c 0,3.3003 -1.64965,4.94995 -4.95044,4.94995 h -3.88875 v -9.36955 h 4.77267 c 2.71085,0 4.06652,1.47287 4.06652,4.4196 z m -17.67839,0.17679 c 0,1.41427 -0.50105,2.62246 -1.50266,3.62407 -1.00161,1.00161 -2.32799,1.50266 -3.97764,1.50266 -3.3003,0 -4.94995,-1.65015 -4.94995,-4.94995 0,-3.2998 1.76784,-4.94995 5.30352,-4.94995 1.76833,0 3.06392,0.47176 3.88924,1.41427 0.82483,0.94301 1.23749,2.06232 1.23749,3.3589 z m -18.7386,4.77316 h -2.29819 l -0.53036,-6.36422 -3.00532,6.36422 -3.53568,-6.18743 -0.70714,6.18743 h -1.23748 l 1.41427,-9.36955 h 1.0607 l 3.18211,6.54101 3.3589,-6.54101 h 1.0607 z m -18.91588,0 H 8.8383957 l -0.53036,-6.36422 -3.18211,6.36422 -3.53568,-6.18743 -0.53035,6.18743 h -1.41426999 c 0.35357000429,-1.41427 0.67734,-3.03512 0.97231,-4.86156 0.29497,-1.82643 0.50104999,-3.32959 0.61923999,-4.50799 h 1.06071 l 3.18211,6.54101 3.18211,-6.54101 h 1.23749 z m -19.6225303,-4.77316 c 0,1.41427 -0.50055,2.62246 -1.50266,3.62407 -1.0020997,1.00161 -2.3279797,1.50266 -3.9776397,1.50266 -3.41749,0 -5.12623,-1.65015 -5.12623,-4.94995 0,-3.2998 1.82594,-4.94995 5.4798,-4.94995 1.76784,0 3.06392,0.47176 3.8892497,1.41427 0.82482,0.94301 1.23748,2.06232 1.23748,3.3589 z m -18.9158797,-4.06603 -0.35357,1.23748 c -0.82482,-0.82482 -1.64965,-1.23748 -2.47447,-1.23748 -2.12141,0 -3.18211,1.41427 -3.18211,4.24281 0,2.71036 1.0607,4.06603 3.18211,4.06603 1.0607,0 1.88553,-0.35307 2.47447,-1.0607 l -0.17628,1.23749 c -0.58945,0.47175 -1.47337,0.70713 -2.65176,0.70713 -1.53196,0 -2.76995,-0.41266 -3.71247,-1.23749 -0.94251,-0.82532 -1.41427,-2.00371 -1.41427,-3.53568 -6.2e-4,-3.41749 1.82644,-5.12673 5.48031,-5.12673 1.0602,0 2.00322,0.23588 2.82804,0.70714 z m 152.032214,25.45689 -0.53035,-3.00533 v -1.23749 l -1.41427,4.24282 h -0.70714 l -1.41476,-4.24282 v 4.24282 h -0.70714 v -4.94996 h 1.0612 l 1.41427,4.06603 1.41427,-4.06603 h 0.88392 z m -7.07086,-4.4196 v 4.4196 l -0.53035,-4.4196 h -1.76834 l 4.06603,-0.53036 z M 45.962526,118.85538 h -7.07136 V 87.918693 h 7.07136 z m 41.54373,-21.921207 c -2.2396,-2.47448 -4.65547,-4.33121 -7.24814,-5.56869 -2.59317,-1.23749 -5.12674,-1.85574 -7.60221,-1.85574 -3.88875,0 -7.21785,1.1784 -9.9878,3.53568 -2.76994,2.35728 -4.15442,6.06925 -4.15442,11.137387 0,4.47819 1.59106,8.04367 4.77317,10.69543 3.18211,2.65176 6.65869,3.97764 10.43025,3.97764 1.41427,0 2.82805,-0.29497 4.24232,-0.88343 v -11.31516 h 7.24864 v 11.31417 c -1.29609,1.0607 -3.41799,1.85573 -6.36423,2.38658 -2.94623,0.52986 -5.53889,0.79553 -7.77799,0.79553 -2.94673,0 -6.89507,-0.70713 -11.84453,-2.12091 -4.95044,-1.41477 -7.42492,-6.30513 -7.42492,-14.67307 0,-4.24281 2.06231,-8.249747 6.18744,-12.021307 4.12512,-3.77106 9.13367,-5.65708 15.02663,-5.65708 2.59267,0 4.97925,0.32377 7.15975,0.97231 2.18001,0.64854 4.62519,1.79763 7.33604,3.44729 z m -55.68595,21.921207 h -7.07136 V 92.868643 L 11.666936,121.15357 -1.7686443,94.990043 v 26.870667 l -4.24281,0.53035 V 87.918693 h 8.30884 l 10.9601103,21.567637 9.72311,-21.567637 h 8.8392 v 30.936687 z m -39.5996103,3.71246 -7.7784897,1.23699 -10.96011,-28.637997 -16.61719,28.815287 c 5.18533,-1.41428 10.54794,-2.59317 16.08734,-3.53568 l 2.47497,2.1214 c -7.89618,1.41428 -14.67307,3.00483 -20.32965,4.77267 l -1.76785,3.18211 c -2.82854,0.35357 -5.30351,1.11931 -7.42492,2.2982 l 27.22423,-44.902627 h 4.59638 z M 144.60698,146.2564 c -12.61075,-5.65759 -27.93137,-9.9297 -45.963334,-12.81684 -18.03196,-2.88714 -36.77057,-4.33121 -56.2168,-4.33121 -20.03518,0 -39.2748403,1.50217 -57.71897,4.5075 -18.44412,3.00582 -34.08951,7.27843 -46.93564,12.81733 l 4.4196,-7.24814 c 9.54633,-3.88925 23.2168,-7.15975 41.01288,-9.81151 17.7960897,-2.65176 36.53519,-3.97764 56.2168,-3.97764 17.20664,0 33.67685,1.0607 49.41062,3.18211 15.733774,2.12091 30.199764,5.5389 43.399464,10.25297 -1.0607,-1.29608 -2.50427,-3.03462 -4.3312,-5.21512 -1.82694,-2.18051 -3.21191,-3.97764 -4.15443,-5.39142 l -21.56764,-35.002717 -8.131564,24.749747 16.970764,3.53518 1.94462,2.82855 a 99.753819,99.753819 0 0 0 -8.7503,-2.12141 c -3.00583,-0.58945 -6.629904,-1.23699 -10.872224,-1.94463 l -0.88391,2.29869 -5.12674,-0.70763 13.435584,-33.942017 h 6.18744 l 22.45156,36.593277 c 2.35679,3.77156 4.97925,7.7199 7.86639,11.84502 2.88764,4.12463 5.33331,7.42493 7.33703,9.89991 z M 98.113296,69.709943 v -0.70714 c -0.11769,-0.70713 -0.82483,-1.0607 -2.12091,-1.0607 v 3.71246 c 1.41377,0.23538 2.12091,-0.41216 2.12091,-1.94462 z m -33.94252,1.94462 c 0,-2.47497 -1.06071,-3.71246 -3.18162,-3.71246 h -1.23748 v 7.77849 h 1.0607 c 2.2391,0 3.3584,-1.35567 3.3584,-4.06603 z m 18.7391,0 c 0,-2.59266 -1.00211,-3.88924 -3.00583,-3.88924 -2.00272,0 -3.00533,1.53245 -3.00533,4.59638 0,2.47497 0.94252,3.71246 2.82855,3.71246 2.1224,0 3.18261,-1.47336 3.18261,-4.4196 z m -36.41651,0 c 0,-2.59266 -0.94251,-3.88924 -2.82854,-3.88924 -2.12091,0 -3.18211,1.53245 -3.18211,4.59638 0,2.47497 1.00161,3.71246 3.00483,3.71246 1.0612,0 1.82693,-0.41216 2.29869,-1.23749 0.47126,-0.82532 0.70713,-1.88602 0.70713,-3.18211 z m -57.2775,0 c 0,-2.59266 -1.0021,-3.88924 -3.00532,-3.88924 -2.00372,0 -3.00533,1.53245 -3.00533,4.59638 0,2.47497 0.94252,3.71246 2.82854,3.71246 2.12091,0 3.18211,-1.47336 3.18211,-4.4196 z"
       id="path3183" />
  </g>
</svg>
