<?xml version="1.0" encoding="UTF-8" standalone="no"?>
<svg
   xmlns:dc="http://purl.org/dc/elements/1.1/"
   xmlns:cc="http://creativecommons.org/ns#"
   xmlns:rdf="http://www.w3.org/1999/02/22-rdf-syntax-ns#"
   xmlns:svg="http://www.w3.org/2000/svg"
   xmlns="http://www.w3.org/2000/svg"
   id="svg3994"
   version="1.1"
   viewBox="0 0 66.63401 79.374977"
   height="79.374977mm"
   width="66.63401mm">
  <defs
     id="defs3988" />
  <metadata
     id="metadata3991">
    <rdf:RDF>
      <cc:Work
         rdf:about="">
        <dc:format>image/svg+xml</dc:format>
        <dc:type
           rdf:resource="http://purl.org/dc/dcmitype/StillImage" />
        <dc:title></dc:title>
      </cc:Work>
    </rdf:RDF>
  </metadata>
  <g
     transform="translate(-32.533308,-101.39719)"
     id="layer1">
    <path
       id="path4739"
       d="m 56.044648,180.51648 c -0.437283,-0.16025 -1.105035,-0.63227 -1.612873,-1.14012 -1.364074,-1.36407 -1.394731,-1.55335 -1.394731,-8.6114 v -5.9665 l -3.474659,-0.0511 c -3.451788,-0.0508 -3.479112,-0.054 -4.150722,-0.49887 -0.406739,-0.2694 -0.817035,-0.73901 -1.029944,-1.17882 -0.353547,-0.73033 -0.353887,-0.74745 -0.353887,-17.77918 v -17.04815 h 21.855681 21.855685 v 17.10747 c 0,16.45787 -0.01198,17.13097 -0.31592,17.72646 -0.361384,0.70807 -0.711032,1.04909 -1.469294,1.43306 -0.439341,0.22247 -1.125277,0.27037 -3.871544,0.27037 h -3.337605 l -0.04912,6.38153 c -0.0548,7.11682 -0.01463,6.85907 -1.277085,8.18916 -0.830424,0.8749 -1.741365,1.30788 -2.95691,1.40544 -1.874175,0.15044 -3.539733,-0.74399 -4.533566,-2.43461 l -0.457626,-0.77846 -0.04915,-6.38489 -0.04915,-6.38489 -3.454436,0.0451 -3.454437,0.0451 -0.08342,6.33982 c -0.07584,5.76401 -0.111606,6.39285 -0.393766,6.92375 -0.438549,0.82514 -1.409465,1.80366 -2.192212,2.2094 -0.89519,0.464 -2.733936,0.55246 -3.749305,0.18036 z M 35.881721,157.03446 c -1.624574,-0.52948 -2.848926,-1.86422 -3.201771,-3.49045 -0.130162,-0.5999 -0.170545,-4.19 -0.133531,-11.87124 l 0.05306,-11.01126 0.452132,-0.85719 c 1.509172,-2.8612 5.301605,-3.43233 7.533242,-1.13449 1.260317,1.29771 1.18526,0.48871 1.237337,13.33662 0.05205,12.84046 0.09488,12.31057 -1.102392,13.63582 -1.180739,1.30693 -3.262044,1.90584 -4.838077,1.39219 z m 57.330709,0.0139 c -0.43074,-0.1213 -0.918741,-0.32315 -1.084448,-0.44855 -0.889552,-0.67319 -1.467989,-1.33387 -1.821611,-2.08061 l -0.39503,-0.83418 -0.0019,-11.50081 c -0.0019,-11.21785 0.0067,-11.51801 0.337012,-12.20036 1.719289,-3.55157 6.720132,-3.63153 8.505302,-0.136 l 0.415562,0.81362 v 11.51177 c 0,11.38192 -0.0038,11.52041 -0.354151,12.27745 -0.970321,2.09787 -3.390276,3.22021 -5.600971,2.59766 z M 43.894245,125.11417 c 0.981023,-6.29196 4.870938,-12.23304 10.138263,-15.48422 0.553622,-0.34171 1.006583,-0.66065 1.006583,-0.70875 0,-0.0481 -0.750768,-1.53747 -1.668372,-3.30974 -0.917605,-1.77225 -1.668373,-3.32474 -1.668373,-3.44997 0,-0.12523 0.143908,-0.35793 0.319795,-0.51711 0.248713,-0.22508 0.393558,-0.24993 0.651632,-0.11182 0.18439,0.0987 1.050057,1.56868 1.948259,3.30834 0.889033,1.7219 1.674515,3.19216 1.745514,3.26724 0.071,0.0751 0.57068,-0.0484 1.110401,-0.27442 2.886551,-1.20875 5.69544,-1.68164 9.239753,-1.55557 2.899128,0.10313 4.580381,0.4218 6.979275,1.32286 l 1.524484,0.57262 1.87939,-3.25522 c 1.033668,-1.79037 2.010774,-3.33697 2.17136,-3.43688 0.378245,-0.23536 0.8553,0.0457 0.929883,0.54791 0.03361,0.22641 -0.571116,1.44707 -1.603346,3.23628 -0.911534,1.58002 -1.7418,3.03468 -1.84503,3.23258 -0.174194,0.33393 -0.06488,0.44147 1.519929,1.49527 4.783354,3.18061 8.527384,8.82374 9.455792,14.25207 0.101313,0.59239 0.221461,1.246 0.267001,1.45246 l 0.08279,0.37538 H 65.911949 43.74467 Z m 13.35544,-7.54172 c 1.270411,-1.42171 -0.294475,-3.56847 -2.066269,-2.83458 -0.578682,0.23971 -1.143777,1.04219 -1.144724,1.62563 -0.0027,1.65078 2.106565,2.44492 3.210993,1.20895 z m 19.912032,0.0924 c 0.457116,-0.45712 0.567245,-0.69757 0.567245,-1.23848 0,-1.83096 -2.405231,-2.51929 -3.355856,-0.96038 -0.379608,0.62251 -0.397156,1.12143 -0.06224,1.76914 0.308416,0.59642 0.978849,0.98137 1.72467,0.99028 0.41838,0.005 0.701523,-0.13594 1.126153,-0.56056 z"
       style="fill:#ffffff;stroke-width:0.16683726" />
  </g>
</svg>
