<?xml version="1.0" encoding="UTF-8" standalone="no"?>
<svg
   xmlns:dc="http://purl.org/dc/elements/1.1/"
   xmlns:cc="http://creativecommons.org/ns#"
   xmlns:rdf="http://www.w3.org/1999/02/22-rdf-syntax-ns#"
   xmlns:svg="http://www.w3.org/2000/svg"
   xmlns="http://www.w3.org/2000/svg"
   id="svg2282"
   version="1.1"
   viewBox="0 0 63.690521 75.647949"
   height="75.647949mm"
   width="63.690521mm">
  <defs
     id="defs2276" />
  <metadata
     id="metadata2279">
    <rdf:RDF>
      <cc:Work
         rdf:about="">
        <dc:format>image/svg+xml</dc:format>
        <dc:type
           rdf:resource="http://purl.org/dc/dcmitype/StillImage" />
        <dc:title></dc:title>
      </cc:Work>
    </rdf:RDF>
  </metadata>
  <g
     transform="translate(-0.15427735,-69.553015)"
     id="layer1">
    <path
       id="path2889"
       d="m 18.963501,145.05315 c -3.317609,-0.76737 -6.252799,-3.36147 -10.4162565,-9.20579 -3.872081,-5.43532 -6.686921,-12.29649 -7.84197998,-19.11482 -1.134161,-6.69498 -0.509618,-12.8174 1.80171498,-17.662273 3.089476,-6.475951 8.7936485,-10.591554 15.6266455,-11.274737 2.610047,-0.26096 4.597619,0.111633 8.970142,1.681554 3.19649,1.147675 4.53083,1.523395 5.41023,1.523395 0.5741,0 1.56234,-0.28065 4.63592,-1.316549 5.85193,-1.972297 6.97719,-2.205903 10.0302,-2.082311 5.50988,0.223055 10.38167,2.404739 13.48784,6.040126 0.46841,0.548215 0.90482,1.095367 0.96981,1.215891 0.0961,0.17825 -0.12207,0.388059 -1.16931,1.124479 -3.46634,2.437522 -5.62972,5.484965 -6.65319,9.372015 -0.36241,1.37638 -0.49867,4.83235 -0.2599,6.59131 0.72134,5.31376 4.04462,9.86391 9.14774,12.52483 l 1.14169,0.59532 -0.64883,1.71979 c -1.66433,4.41148 -3.97188,8.32184 -7.46302,12.64678 -3.72313,4.61233 -7.17413,6.28517 -11.32474,5.48953 -0.95027,-0.18216 -2.00008,-0.51242 -5.46866,-1.72041 -2.37635,-0.82759 -3.78072,-1.05217 -6.01928,-0.96255 -2.16487,0.0867 -3.64662,0.42816 -6.42264,1.48022 -3.50815,1.32952 -5.799841,1.73535 -7.534126,1.3342 z M 32.043777,87.078825 c -0.0483,-0.192378 -0.0516,-0.981167 -0.007,-1.752864 0.22761,-3.974293 2.31442,-8.202917 5.50661,-11.158398 2.55673,-2.367138 6.19818,-4.068646 9.69789,-4.531448 l 0.62839,-0.0831 v 1.512131 c 0,3.331787 -1.00725,6.394088 -3.03719,9.233876 -3.17651,4.443769 -7.51967,7.125421 -11.54545,7.128652 -1.13879,9.26e-4 -1.15626,-0.004 -1.24282,-0.348852 z"
       style="fill:#ffffff;stroke-width:0.13229166" />
  </g>
</svg>
