<?xml version="1.0" encoding="UTF-8" standalone="no"?>
<svg
   xmlns:dc="http://purl.org/dc/elements/1.1/"
   xmlns:cc="http://creativecommons.org/ns#"
   xmlns:rdf="http://www.w3.org/1999/02/22-rdf-syntax-ns#"
   xmlns:svg="http://www.w3.org/2000/svg"
   xmlns="http://www.w3.org/2000/svg"
   id="svg3219"
   version="1.1"
   viewBox="0 0 68.17485 79.375"
   height="79.375mm"
   width="68.17485mm">
  <defs
     id="defs3213" />
  <metadata
     id="metadata3216">
    <rdf:RDF>
      <cc:Work
         rdf:about="">
        <dc:format>image/svg+xml</dc:format>
        <dc:type
           rdf:resource="http://purl.org/dc/dcmitype/StillImage" />
        <dc:title></dc:title>
      </cc:Work>
    </rdf:RDF>
  </metadata>
  <g
     transform="translate(-38.553557,-56.64494)"
     id="layer1">
    <path
       id="path3948"
       d="M 38.553557,96.332438 V 56.64494 H 72.640984 106.72841 V 96.332438 136.01994 H 72.640984 38.553557 Z m 12.300111,31.402202 c 0.08512,-0.13773 0.396911,-1.09645 0.69288,-2.13047 l 0.538114,-1.88005 2.461352,-0.0691 2.461344,-0.0691 0.694979,2.13869 0.694978,2.13871 h 1.582629 c 0.913316,0 1.569589,-0.10298 1.551801,-0.24349 -0.01693,-0.13391 -1.146783,-3.96874 -2.510734,-8.52185 -2.745874,-9.16624 -2.849309,-9.37404 -4.665791,-9.37404 -1.117592,0 -2.03816,0.74057 -2.319525,1.86601 -0.09495,0.3798 -1.1273,4.14189 -2.294126,8.36022 -1.166815,4.21832 -2.073211,7.75184 -2.014223,7.85227 0.163407,0.27822 2.949819,0.21779 3.126322,-0.0678 z m 2.065306,-7.13159 c 0,-0.0426 0.154528,-0.61788 0.34339,-1.27828 0.188871,-0.6604 0.531387,-1.85813 0.761153,-2.66162 l 0.417755,-1.46089 0.685518,2.17897 c 1.147151,3.64627 1.212396,3.29937 -0.620549,3.29937 -0.87299,0 -1.587267,-0.0349 -1.587267,-0.0776 z m 13.205366,-0.10506 0.06442,-7.48707 1.886982,-0.0711 1.886981,-0.0711 v -1.57238 -1.57239 h -5.47834 -5.478332 v 1.58263 1.58263 h 1.947847 1.947856 v 7.38561 c 0,4.06209 0.07307,7.45866 0.162322,7.54793 0.08926,0.0893 0.799877,0.16232 1.579113,0.16232 h 1.416792 z m 5.299242,5.23548 0.608706,-2.12983 2.457303,-7.3e-4 2.457304,-7.3e-4 0.672212,2.19133 0.672202,2.19133 h 1.557506 c 1.22239,0 1.557507,-0.0786 1.557507,-0.36535 0,-0.47789 -4.781513,-16.30224 -5.11316,-16.92192 -0.588773,-1.10014 -2.49289,-1.33122 -3.510331,-0.42601 -0.515191,0.45836 -0.971651,1.8402 -2.794905,8.46099 -1.198537,4.35223 -2.255559,8.21976 -2.348954,8.59451 l -0.169813,0.68138 1.672859,-0.0727 1.672859,-0.0724 z m 1.523411,-5.47896 c 0.06561,-0.23435 0.37431,-1.38481 0.68597,-2.55656 0.311668,-1.17175 0.637288,-2.13046 0.723616,-2.13046 0.08632,0 0.458761,1.00567 0.827641,2.23483 0.36889,1.22916 0.726258,2.37962 0.794154,2.55656 0.09478,0.24698 -0.256868,0.32172 -1.51362,0.32172 -1.442255,0 -1.62288,-0.0507 -1.517761,-0.42609 z m 20.526676,7.31661 c -0.08736,-0.22766 -1.057791,-1.88936 -2.156514,-3.69269 -1.236655,-2.02971 -1.886183,-3.31597 -1.704996,-3.37644 0.746945,-0.24927 1.946357,-1.26136 2.604424,-2.19768 0.926937,-1.31887 1.14497,-3.42543 0.523079,-5.05383 -0.498019,-1.30404 -2.152604,-2.83805 -3.494892,-3.24022 -1.312776,-0.39331 -4.269415,-0.35984 -5.27354,0.0597 -1.547421,0.64655 -1.590976,0.91338 -1.590976,9.74635 v 7.92525 h 1.582629 1.582629 v -7.4262 -7.42619 h 1.233414 c 2.055727,0 3.138433,0.88197 3.138433,2.55656 0,1.22537 -0.531332,1.91283 -1.940476,2.51067 -1.395258,0.59196 -1.811604,1.10077 -1.811604,2.21397 0,0.85937 0.270497,1.36504 3.691767,6.90161 0.559693,0.90574 0.577067,0.91306 2.169834,0.91306 1.411154,0 1.586387,-0.0502 1.446789,-0.41393 z m 4.188018,-8.7775 0.06386,-9.06969 H 96.13996 94.554364 v 9.14218 9.14217 l 1.521758,-0.0725 1.521764,-0.0725 z M 50.245569,104.84353 c 2.413519,-0.6596 6.30981,-2.57635 8.273485,-4.07008 4.399353,-3.3465 7.46077,-7.809442 9.178675,-13.380663 l 0.659485,-2.138761 0.08899,-10.165353 0.08899,-10.165362 h -2.187855 -2.187856 l -0.09963,7.974028 c -0.08871,7.101985 -0.153607,8.160405 -0.593236,9.678387 -1.641019,5.666227 -4.730789,9.928785 -9.412206,12.984847 -1.572994,1.026865 -3.369175,1.855647 -6.065908,2.79888 -0.378479,0.132387 -0.426092,0.530825 -0.426092,3.565427 0,3.94532 -0.215549,3.71086 2.683187,2.91865 z M 75.806251,85.132287 V 64.923311 h -3.165267 -3.165258 v 20.208976 20.208973 h 3.165258 3.165267 z m 21.913347,16.792593 c 0,-3.034602 -0.04758,-3.43304 -0.426102,-3.565427 C 94.59677,97.41622 92.800591,96.587438 91.22759,95.560573 86.595558,92.536757 83.372325,88.12199 81.839969,82.702628 81.371564,81.046066 81.312641,80.110637 81.222346,72.897339 l -0.09982,-7.974028 h -2.187865 -2.187856 l 0.08899,10.165362 0.08899,10.165353 0.659494,2.138761 c 1.717895,5.571221 4.779322,10.034163 9.178675,13.380663 2.655119,2.01971 8.291184,4.48366 10.408834,4.55051 0.542917,0.0171 0.547831,-0.0134 0.54784,-3.39908 z"
       style="fill:#ffffff;stroke-width:0.24348162" />
  </g>
</svg>
