<?xml version="1.0" encoding="UTF-8" standalone="no"?>
<svg
   xmlns:dc="http://purl.org/dc/elements/1.1/"
   xmlns:cc="http://creativecommons.org/ns#"
   xmlns:rdf="http://www.w3.org/1999/02/22-rdf-syntax-ns#"
   xmlns:svg="http://www.w3.org/2000/svg"
   xmlns="http://www.w3.org/2000/svg"
   id="svg1637"
   version="1.1"
   viewBox="0 0 130.97407 79.374985"
   height="79.374985mm"
   width="130.97408mm">
  <defs
     id="defs1631" />
  <metadata
     id="metadata1634">
    <rdf:RDF>
      <cc:Work
         rdf:about="">
        <dc:format>image/svg+xml</dc:format>
        <dc:type
           rdf:resource="http://purl.org/dc/dcmitype/StillImage" />
        <dc:title></dc:title>
      </cc:Work>
    </rdf:RDF>
  </metadata>
  <g
     transform="translate(58.655815,-112.51971)"
     id="layer1">
    <path
       id="path2372"
       d="m -40.890566,191.42144 c -2.73623,-1.23989 -4.9936,-3.38372 -8.23154,-7.81747 -7.84729,-10.74541 -11.34299,-25.22108 -8.61749,-35.68497 2.01669,-7.74256 7.10477,-13.26419 14.09934,-15.30068 4.01746,-1.1697 7.3587,-0.87447 12.58723,1.11223 4.47545,1.70054 6.17011,1.64059 12.05988,-0.42663 3.98473,-1.39858 5.74231,-1.66731 9.2843898,-1.41959 4.84163,0.33859 10.32372001,2.82926 12.60178,5.72535 l 1.29164,1.64204 -2.57871,2.35745 c -4.00256,3.65914 -5.66956,7.45236 -5.69118,12.95008 -0.0273,6.9323 2.55888,11.49213 8.85661,15.61583 l 1.60499,1.05092 -1.22502,3.20767 c -1.63063,4.26975 -7.39192,12.62912 -10.34267,15.00676 -3.37763,2.72156 -6.3215098,3.01515 -11.7057398,1.16732 -5.60204,-1.92259 -10.01275,-1.95038 -14.91529,-0.0941 -3.79806,1.43814 -7.16485,1.77478 -9.07822,0.90775 z m 70.41338,-21.90434 c -6.50809,-1.65033 -10.17773,-7.04364 -10.1532,-14.92231 0.0175,-5.60781 1.40621,-9.08231 4.83268,-12.09078 2.77781,-2.43895 5.52086,-3.11181 11.05425,-2.71156 6.84516,0.49513 11.08912,5.33326 11.73486,13.37781 0.55694,6.93827 -2.29941,12.84731 -7.49511,15.50542 -1.94619,0.99568 -7.51305,1.46532 -9.97348,0.84142 z m 7.78477,-5.1783 c 3.91884,-2.31488 5.78003,-9.93058 3.64912,-14.9316 -2.93035,-6.87722 -11.72148,-7.54578 -15.09059,-1.14765 -1.55878,2.96022 -1.61395,9.2305 -0.10915,12.40169 2.0792,4.38155 7.45912,6.09446 11.55061,3.67756 z m 20.11479,5.19499 c -4.32249,-1.11158 -7.61346,-4.18893 -7.61346,-7.11933 0,-1.34814 0.32212,-1.5658 2.31714,-1.5658 1.27443,0 2.31714,0.31145 2.31714,0.69213 0,0.38066 0.73126,1.42335 1.62501,2.31711 1.27607,1.27607 2.31063,1.62503 4.81799,1.62503 4.01099,0 6.13576,-1.38329 6.13576,-3.99451 0,-2.45759 -1.60651,-3.52357 -7.54408,-5.0058 -2.96346,-0.73977 -5.34407,-1.82368 -6.78591,-3.08964 -1.93599,-1.69982 -2.22101,-2.35459 -2.22101,-5.10238 0,-5.60316 3.7279,-8.62724 10.63514,-8.62724 5.20719,0 8.75914,1.83767 10.12164,5.23665 1.18059,2.94517 0.93765,3.36987 -1.92771,3.36987 -1.53211,0 -2.27807,-0.30945 -2.27807,-0.94501 0,-1.61594 -3.3159,-3.68927 -5.90033,-3.68927 -3.22212,0 -5.35435,1.5645 -5.35435,3.92874 0,2.49564 0.78279,3.0247 6.90074,4.66422 2.8681,0.76857 5.75058,1.6842 6.40549,2.03471 2.09379,1.12056 3.24476,3.47711 3.24476,6.64341 0,3.42887 -1.53898,5.95478 -4.5892,7.5321 -2.30059,1.18969 -7.70552,1.76392 -10.30669,1.09501 z M 10.748554,158.5315 v -10.92365 h 2.64816 2.64816 v 10.92365 10.92367 h -2.64816 -2.64816 z m 1.04035,-14.61217 c -2.0261102,-2.02611 -0.84069,-4.46896 2.01067,-4.14347 2.34154,0.26729 3.07665,2.93858 1.18858,4.31917 -1.51992,1.1114 -1.93494,1.08861 -3.19925,-0.17565 z m -38.11459,-15.06169 c 0,-2.77153 2.015,-7.52681 4.34077,-10.24395 2.31951,-2.70983 8.11494,-6.09398 10.43608,-6.09398 1.14073,0 1.24431,0.38307 0.97656,3.61178 -0.58014,6.99579 -7.29572,14.2633 -13.18007,14.2633 -2.25089,0 -2.57334,-0.19267 -2.57334,-1.53715 z"
       style="fill:#ffffff;stroke-width:0.66204" />
  </g>
</svg>
