<?xml version="1.0" encoding="UTF-8" standalone="no"?>
<svg
   xmlns:dc="http://purl.org/dc/elements/1.1/"
   xmlns:cc="http://creativecommons.org/ns#"
   xmlns:rdf="http://www.w3.org/1999/02/22-rdf-syntax-ns#"
   xmlns:svg="http://www.w3.org/2000/svg"
   xmlns="http://www.w3.org/2000/svg"
   id="svg2916"
   version="1.1"
   viewBox="0 0 67.236725 78.857651"
   height="78.857651mm"
   width="67.236725mm">
  <defs
     id="defs2910" />
  <metadata
     id="metadata2913">
    <rdf:RDF>
      <cc:Work
         rdf:about="">
        <dc:format>image/svg+xml</dc:format>
        <dc:type
           rdf:resource="http://purl.org/dc/dcmitype/StillImage" />
        <dc:title></dc:title>
      </cc:Work>
    </rdf:RDF>
  </metadata>
  <g
     transform="translate(60.131024,-138.13901)"
     id="layer1">
    <path
       id="path3523"
       d="m -40.4672,216.95575 c -0.87903,-0.11612 -2.284811,-0.58983 -4.984185,-1.67955 -2.871843,-1.15933 -4.287516,-1.56894 -8.039459,-2.32607 -0.733581,-0.14803 -2.137204,-0.46779 -3.119163,-0.71055 -1.864472,-0.46096 -2.618422,-0.74763 -3.060892,-1.16384 -0.413945,-0.38938 -0.485779,-0.61442 -0.453237,-1.41994 0.02577,-0.6378 0.06874,-0.82466 0.377673,-1.6423 0.537578,-1.42278 0.598136,-1.7037 0.602929,-2.79692 0.0039,-0.89948 -0.01508,-1.03469 -0.272103,-1.93416 -0.329455,-1.15296 -0.430371,-1.69371 -0.430371,-2.30612 0,-1.20219 0.382896,-2.06762 1.078667,-2.43803 0.269282,-0.14336 0.463716,-0.16342 2.045748,-0.21107 1.836819,-0.0553 2.019027,-0.0813 2.678069,-0.382 0.847948,-0.38689 1.278119,-0.94737 1.785165,-2.32593 0.339983,-0.92435 0.343611,-0.93256 0.959394,-2.16885 0.427124,-0.85754 0.446021,-0.91814 0.359544,-1.15306 -0.06159,-0.16731 -0.09127,-0.76817 -0.09127,-1.84736 v -1.5994 l 0.246153,-0.70671 c 0.135384,-0.3887 0.519212,-1.22559 0.85295,-1.85977 1.406726,-2.67312 2.117556,-4.27948 3.324787,-7.51348 1.205943,-3.23054 1.443764,-3.66072 3.627621,-6.56174 0.699363,-0.92902 1.780933,-2.45218 2.403489,-3.38478 0.622557,-0.9326 1.408335,-2.08087 1.746174,-2.55172 0.337839,-0.47084 0.743611,-1.09014 0.901713,-1.37623 l 0.28746,-0.52015 -0.0066,-1.00428 c -0.0036,-0.55235 -0.0778,-2.47721 -0.16487,-4.27746 -0.431578,-8.92368 -0.411469,-11.09402 0.125588,-13.55473 0.456513,-2.09167 1.330126,-3.7543 2.59172,-4.93249 1.475043,-1.37753 3.101869,-2.07109 5.599924,-2.38741 0.867048,-0.10979 3.355667,-0.10684 4.314668,0.005 4.353515,0.50823 7.680322,2.62143 9.32014,5.92017 0.797137,1.60356 1.094252,3.28269 1.427629,8.06819 0.359882,5.16597 0.661384,7.08543 1.384441,8.81377 0.170814,0.4083 0.711749,1.49627 1.202072,2.4177 2.1263896,3.99594 2.8981096,5.21132 5.3385796,8.40771 2.87246,3.7622 4.19821,6.23707 5.28013,9.85678 0.76515002,2.5599 1.43228002,6.41926 1.44023002,8.33177 0.004,0.93041 -0.023,1.21893 -0.16162,1.73603 -0.2781,1.03734 -0.71366,1.75265 -1.66659002,2.73698 l -0.36934,0.38151 0.65805,0.11709 c 0.36193002,0.0644 0.81943002,0.13957 1.01667002,0.16705 0.7466,0.10404 1.0774,0.67856 1.17463,2.04006 0.0901,1.26231 0.26338998,1.7949 0.88217998,2.7119 0.61785,0.91561 1.44335,1.66363 2.89958,2.62743 1.91717,1.26888 2.45883,1.88261 2.45883,2.78599 0,0.85265 -0.37905,1.29421 -2.14099,2.49408 -1.48014,1.00796 -2.19939,1.41625 -3.63186,2.06169 -1.36024998,0.6129 -2.35436,1.1547 -3.4652,1.88859 -1.15173,0.76091 -1.8254,1.32426 -3.2628,2.72852 -1.67269,1.63412 -2.29852,2.01146 -3.7622,2.26834 -0.71893,0.12617 -3.0760496,0.0591 -3.7852726,-0.10766 -1.514787,-0.35625 -2.46027,-1.04183 -3.136878,-2.27461 -0.752584,-1.37119 -0.678854,-1.33871 -3.218973,-1.41823 -2.7872,-0.0873 -9.552365,-0.0833 -11.014405,0.006 -1.783784,0.10952 -3.130603,0.40664 -4.12869,0.91083 -0.512627,0.25896 -1.351475,0.85572 -2.178749,1.54999 -1.068751,0.89691 -1.573807,1.22681 -2.151198,1.40515 -0.455919,0.14082 -1.091893,0.17746 -1.695709,0.0977 z m 1.619394,-2.379 c 1.221037,-0.27941 2.241179,-1.4034 2.621342,-2.88817 0.433107,-1.69155 0.26588,-3.15529 -0.562949,-4.92748 -0.452287,-0.96708 -1.000311,-1.84861 -3.295647,-5.30126 -4.265834,-6.41667 -5.968746,-8.47997 -7.641426,-9.2586 -0.776551,-0.36148 -1.98056,-0.17845 -2.485911,0.37791 -0.310209,0.34152 -0.902581,1.678 -1.001667,2.25991 -0.156747,0.92054 -0.515874,2.31362 -0.700266,2.71639 -0.243888,0.53272 -0.608825,0.97811 -0.976136,1.19133 -0.697023,0.40463 -2.037225,0.56339 -3.179407,0.37663 -0.96559,-0.15788 -1.926642,-0.15587 -2.265117,0.005 -0.142808,0.0678 -0.344846,0.25196 -0.448974,0.4093 -0.168496,0.25462 -0.185372,0.34132 -0.1534,0.78808 0.0293,0.40941 0.133814,0.73174 0.566711,1.74778 0.892498,2.09474 1.060391,2.99345 0.794065,4.25054 -0.139917,0.66042 -0.316414,1.01789 -0.99319,2.01156 -0.812331,1.1927 -0.809335,1.61273 0.01433,2.00853 0.390872,0.18782 5.595168,1.53333 9.086961,2.34931 1.063789,0.2486 3.005389,0.7223 4.314667,1.05268 3.103551,0.78313 3.490345,0.86957 4.221623,0.94346 0.750171,0.0758 1.41881,0.0397 2.084393,-0.11264 z m 29.3939836,-0.0268 c 0.66875,-0.0967 1.43719,-0.36731 1.92418,-0.67768 0.21424,-0.13655 0.89167,-0.65273 1.50539,-1.14709 3.03406,-2.44392 3.75035,-2.84607 6.94521002,-3.89924 2.14329998,-0.70652 2.81267998,-0.9844 3.61916998,-1.50241 0.99804,-0.64104 1.67084,-1.49918 1.67221,-2.13285 0.002,-0.92546 -0.84229,-1.55687 -2.75176,-2.05793 -0.55235,-0.14494 -1.17802,-0.34778 -1.39037,-0.45075 -0.43999,-0.21335 -1.00716,-0.79704 -1.30068998,-1.33858 -0.6357,-1.17279 -0.97848,-3.20407 -0.72101,-4.27259 0.10144,-0.42095 0.0919,-0.8508 -0.023,-1.03471 -0.12832,-0.20546 -0.73029,-0.37525 -1.62356002,-0.45791 -0.4296,-0.0398 -0.82396,-0.0878 -0.87634,-0.10666 -0.0524,-0.0189 -0.28694,0.14072 -0.52125,0.35471 -1.13223,1.03405 -1.86701,1.5571 -2.80465,1.99649 -1.97305,0.9246 -3.57988,0.57416 -4.9575996,-1.08122 -0.45775,-0.55 -1.217264,-1.9634 -1.302134,-2.42316 -0.06762,-0.36629 -0.153512,-0.44634 -0.478919,-0.44634 -0.839627,0 -1.425276,0.33138 -1.793396,1.01478 -0.334267,0.62055 -0.394566,1.09055 -0.394724,3.07671 -1.49e-4,1.75805 0.0082,1.8634 0.236825,2.97564 0.673829,3.27874 0.706933,4.1256 0.273542,6.99775 -0.268163,1.77717 -0.290471,3.32475 -0.05628,3.90447 0.517992,1.28226 1.771367,2.37499 3.017446,2.63072 0.78021,0.16011 1.12842,0.17516 1.8016596,0.0778 z m -16.0980186,-6.28212 c 2.86406,-0.36407 5.114281,-1.3889 6.277336,-2.85892 0.180783,-0.2285 0.618007,-0.7 0.971608,-1.04778 0.353601,-0.34777 0.783737,-0.78128 0.955858,-0.96334 0.17212,-0.18206 0.58591,-0.60587 0.919532,-0.94179 0.333621,-0.33591 0.628791,-0.68072 0.655932,-0.76624 0.02714,-0.0855 0.07905,-0.15548 0.115354,-0.15548 0.136864,0 0.166917,-0.62236 0.175504,-3.63448 0.0087,-3.05434 0.01125,-3.10387 0.180748,-3.52347 0.230558,-0.57076 0.698128,-1.04289 1.196886,-1.20855 0.214436,-0.0712 0.697172,-0.15113 1.072748,-0.17757 l 0.682864,-0.0481 0.05281,-0.59512 c 0.02905,-0.32732 0.08881,-0.74015 0.132795,-0.91741 0.102749,-0.41401 0.101212,-6.79291 -0.0019,-7.84499 -0.293498,-2.9949 -0.796575,-4.35908 -3.212031,-8.71002 -0.558627,-1.00625 -0.714765,-1.40134 -1.032664,-2.6131 -0.73684,-2.80867 -1.482556,-4.57299 -2.508304,-5.93452 -0.658956,-0.87467 -0.900772,-1.23611 -1.127543,-1.68534 -0.256723,-0.50857 -0.446236,-1.22742 -0.447869,-1.69885 l -0.0011,-0.31741 -0.390552,0.19544 c -0.214803,0.10749 -0.457503,0.25438 -0.539333,0.32643 -0.478978,0.42172 -1.316916,0.91044 -2.045748,1.19318 -0.59057,0.22911 -1.057166,0.50373 -2.603678,1.53244 -0.756927,0.5035 -1.744465,1.23476 -2.194529,1.62503 -1.102718,0.9562 -1.249427,1.02194 -2.377589,1.0654 -1.087352,0.0419 -1.363599,-0.0493 -2.023164,-0.66811 -0.561201,-0.52649 -1.493771,-1.70025 -1.833413,-2.30759 -0.306977,-0.54892 -0.998081,-1.32312 -1.181117,-1.32312 -0.147578,0 -0.191413,0.10448 -0.360152,0.85841 -0.194345,0.86833 -0.609171,1.85881 -1.582426,3.77834 -0.487337,0.96117 -0.895785,1.86526 -0.941031,2.08294 -0.04397,0.21155 -0.143437,0.56875 -0.22104,0.79379 -0.0776,0.22503 -0.198705,0.67695 -0.269116,1.00427 -0.07041,0.32732 -0.239281,0.94663 -0.375269,1.37623 -0.135988,0.42961 -0.411152,1.36712 -0.611476,2.08335 -0.245421,0.87748 -0.523487,1.65395 -0.852492,2.3805 -0.988109,2.18209 -1.731749,4.23834 -1.987153,5.49471 -0.34653,1.70463 -0.404843,2.50296 -0.408257,5.58912 l -0.0033,2.93844 0.20587,0.55793 c 0.113228,0.30686 0.263869,0.67087 0.334759,0.80891 0.138683,0.27004 1.315569,1.34604 3.104521,2.83838 1.076653,0.89814 1.543388,1.27057 3.246912,2.59082 1.602151,1.24169 2.236353,2.27267 2.079472,3.38044 -0.04021,0.2839 -0.142965,0.5984 -0.251912,0.77099 -0.245289,0.38856 -0.923893,1.00064 -1.431168,1.29088 l -0.410883,0.23508 0.169169,0.13193 c 0.09304,0.0726 0.386762,0.24314 0.65271,0.37908 0.265947,0.13593 0.661429,0.35915 0.878851,0.49603 0.689762,0.43426 1.452196,0.88867 1.836413,1.09451 0.204575,0.10959 0.589548,0.33214 0.855495,0.49454 0.538089,0.32858 0.958563,0.47709 1.785379,0.63059 0.717896,0.13328 3.376487,0.0897 4.686622,-0.0769 z m -3.333474,-42.69989 c 1.10162,-0.32139 3.931861,-1.56412 5.338599,-2.34412 0.431491,-0.23926 0.929948,-0.47335 1.107682,-0.52022 0.355854,-0.0938 1.93253,-0.84912 2.068434,-0.99085 0.04701,-0.049 0.179377,-0.39042 0.294151,-0.75865 0.28473,-0.91352 0.300569,-1.8149 0.03835,-2.18255 -0.325269,-0.45605 -0.70732,-0.65486 -2.15272,-1.12024 -1.430274,-0.4605 -2.552074,-0.95207 -2.962612,-1.2982 -0.128651,-0.10847 -0.265735,-0.19722 -0.304631,-0.19722 -0.0389,0 -0.129904,-0.0654 -0.20224,-0.14533 -0.136145,-0.15044 -0.333006,-0.20124 -1.714114,-0.44236 -1.679395,-0.29319 -2.109891,-0.33903 -3.198805,-0.34059 l -1.115863,-0.002 -0.426402,0.24165 c -0.473492,0.26833 -1.484056,1.03069 -2.084174,1.57229 -0.214866,0.19391 -0.635315,0.54597 -0.934332,0.78235 -0.649597,0.51353 -0.944614,0.89961 -1.102541,1.44286 -0.205029,0.70527 -0.01364,1.1079 0.70999,1.49359 0.432344,0.23043 0.601335,0.39716 1.29136,1.27402 0.651739,0.82821 1.692692,1.12536 3.391488,0.96812 1.603109,-0.14838 3.155606,-0.52185 4.986644,-1.19959 0.556558,-0.20601 1.445522,-0.53111 1.975478,-0.72246 0.746529,-0.26955 1.014614,-0.40338 1.190253,-0.59419 0.124683,-0.13546 0.316181,-0.34468 0.42555,-0.46495 0.11552,-0.12702 0.274355,-0.21866 0.379022,-0.21866 0.246298,0 0.443141,0.23573 0.41338,0.49503 -0.04568,0.39799 -0.688327,0.71746 -3.148588,1.56522 -0.654639,0.22558 -1.709129,0.65555 -2.343311,0.95548 -0.634182,0.29994 -1.45434,0.63958 -1.822575,0.75476 -0.667233,0.20871 -0.676623,0.20942 -2.75246,0.20942 -1.145619,0 -2.123326,0.0262 -2.172683,0.0582 -0.04936,0.032 -0.06975,0.11027 -0.04531,0.17394 0.05791,0.1509 1.289643,1.16953 1.717164,1.42008 0.73826,0.43265 1.956527,0.48469 3.15582,0.1348 z m -5.81172,-8.44758 c 0.164646,-0.0881 0.588505,-0.79075 0.589552,-0.9773 4.46e-4,-0.0761 -0.09856,-0.15717 -0.254763,-0.20873 -0.352555,-0.11635 -0.75313,-0.58525 -0.903189,-1.05725 -0.17909,-0.56331 -0.228035,-1.81073 -0.08452,-2.1542 0.210922,-0.50481 0.985473,-0.91889 1.567485,-0.838 0.510764,0.071 0.705617,0.18105 0.97838,0.55263 0.407994,0.5558 0.645387,1.14375 0.686185,1.69947 0.04095,0.55775 0.134497,0.67987 0.520815,0.67987 0.169362,0 0.311502,-0.062 0.442414,-0.19288 0.192857,-0.19286 0.192876,-0.19301 0.151453,-1.17165 -0.0877,-2.0719 -0.748797,-3.41219 -1.896866,-3.84565 -0.995102,-0.3757 -2.135459,0.10399 -2.800455,1.17801 -0.77669,1.25443 -0.738328,4.04169 0.07821,5.68186 0.32771,0.65828 0.581674,0.83773 0.925308,0.65382 z m 14.262978,-0.33733 c 0.244761,-0.17144 0.515593,-0.75861 0.61609,-1.33571 0.168739,-0.96897 -0.02199,-2.20603 -0.587458,-3.81015 -0.551983,-1.56587 -1.080066,-2.09982 -2.401116,-2.42779 -2.025094,-0.50277 -3.057276,-0.1498 -3.941959,1.348 -0.510556,0.86439 -0.803698,1.79643 -0.861313,2.73854 -0.04595,0.75133 0.0044,1.47656 0.115008,1.65547 0.0587,0.095 1.318588,0.33867 1.421653,0.27497 0.02935,-0.0181 0.07235,-0.37714 0.09555,-0.79777 0.05291,-0.95934 0.23759,-1.53286 0.622947,-1.93461 0.391683,-0.40835 0.779071,-0.57474 1.342762,-0.57673 0.981753,-0.004 1.692474,0.3131 2.140042,0.95325 0.218429,0.31242 0.225519,0.34871 0.225278,1.15306 -2.23e-4,0.70782 -0.03201,0.93164 -0.215289,1.51531 -0.207228,0.65994 -0.210387,0.69192 -0.08694,0.88032 0.264743,0.40405 1.152798,0.61736 1.514745,0.36384 z"
       style="fill:#ffffff;stroke-width:0.07439081" />
  </g>
</svg>
