<?xml version="1.0" encoding="UTF-8" standalone="no"?>
<svg
   xmlns:dc="http://purl.org/dc/elements/1.1/"
   xmlns:cc="http://creativecommons.org/ns#"
   xmlns:rdf="http://www.w3.org/1999/02/22-rdf-syntax-ns#"
   xmlns:svg="http://www.w3.org/2000/svg"
   xmlns="http://www.w3.org/2000/svg"
   id="svg8"
   version="1.1"
   viewBox="0 0 464.98129 79.375"
   height="79.375mm"
   width="464.98129mm">
  <defs
     id="defs2" />
  <metadata
     id="metadata5">
    <rdf:RDF>
      <cc:Work
         rdf:about="">
        <dc:format>image/svg+xml</dc:format>
        <dc:type
           rdf:resource="http://purl.org/dc/dcmitype/StillImage" />
        <dc:title></dc:title>
      </cc:Work>
    </rdf:RDF>
  </metadata>
  <g
     transform="translate(256.19231,-90.541501)"
     id="layer1">
    <path
       id="path928"
       d="m 165.22791,169.72326 c -6.32633,-0.60559 -12.53947,-2.66308 -17.22755,-5.7049 -6.69368,-4.34316 -12.47647,-12.07962 -15.00371,-20.07258 -1.45311,-4.59585 -1.99511,-8.31213 -1.99638,-13.68838 -0.002,-6.21041 0.81772,-10.85812 2.77126,-15.72337 1.94434,-4.84233 4.43774,-8.5419 8.4842,-12.58835 3.31571,-3.315715 5.62374,-5.017552 9.27074,-6.835868 5.94437,-2.963716 10.94008,-3.894992 19.7462,-3.680991 6.21699,0.151083 9.84866,0.7743 14.32049,2.457487 9.72885,3.661938 17.86171,12.448692 21.21685,22.922752 3.42145,10.68111 2.34355,23.70793 -2.74672,33.19455 -6.34514,11.82534 -16.36206,18.53391 -29.466,19.7341 -2.66248,0.24384 -6.73662,0.23755 -9.36937,-0.0145 z m 7.74426,-4.21668 c 7.89659,-1.28123 13.29774,-8.63888 15.31405,-20.8614 0.73542,-4.45801 0.91277,-7.23761 0.90506,-14.18628 -0.0139,-12.51684 -1.13271,-19.35687 -4.16925,-25.48872 -2.0511,-4.14187 -4.35581,-6.619458 -7.70461,-8.282502 -4.50225,-2.23587 -10.32335,-2.216291 -14.63465,0.0492 -4.92952,2.590392 -8.60037,8.296042 -10.54721,16.393692 -1.05573,4.39116 -1.7099,11.04935 -1.71242,17.42905 -0.005,12.41496 2.13205,21.97676 6.31905,28.27491 1.17622,1.7693 3.54043,4.01733 5.18773,4.93278 1.46396,0.81359 3.3125,1.47157 4.85706,1.72888 1.51075,0.25168 4.66528,0.25697 6.18519,0.0103 z M 27.508249,169.53656 C 18.647221,168.75048 11.744797,165.91386 5.142655,160.34523 -3.9897625,152.64239 -8.2930837,142.48683 -7.8982605,129.56942 -7.562233,118.57549 -3.8687258,109.75665 3.6164943,102.07611 10.826175,94.678306 19.422945,90.993644 30.32913,90.626793 c 2.719336,-0.09147 4.146447,-0.03922 6.237342,0.228365 3.733385,0.477785 5.662688,1.007126 10.687972,2.932431 5.03424,1.928732 5.903954,2.211059 6.820281,2.214022 1.606995,0.0053 3.231848,-1.487699 4.232296,-3.888611 l 0.603706,-1.448739 0.921827,-0.06138 0.921848,-0.06138 V 103.851 117.1605 l -1.662305,-0.002 -1.662314,-0.002 -0.578598,-1.55938 c -1.893868,-5.10389 -5.18421,-10.0193 -10.023921,-14.97438 -3.922279,-4.015764 -6.701435,-5.341925 -11.66233,-5.565011 -7.582152,-0.340966 -13.266423,2.292315 -17.5699,8.139431 -1.114375,1.51408 -2.742427,4.65515 -3.477994,6.71025 -1.053076,2.94219 -2.156506,8.09173 -2.763178,12.89547 -0.41334,3.27284 -0.347735,13.66562 0.108765,17.22756 1.045522,8.15818 2.894753,13.85291 5.745862,17.69437 3.920649,5.28249 10.438026,8.11757 17.754956,7.72341 4.177853,-0.22507 6.402102,-0.96511 8.147949,-2.71096 1.57881,-1.57881 1.555758,-1.40296 1.485155,-11.33232 -0.05971,-8.39644 -0.07955,-8.79252 -0.484928,-9.66847 -1.044214,-2.25639 -3.810979,-3.39478 -8.291835,-3.41168 l -1.863803,-0.007 v -1.3097 -1.30969 H 52.60359 71.251197 l -0.06001,1.25754 -0.06001,1.25753 -2.014916,0.24393 c -4.071549,0.49287 -5.350798,1.10454 -6.420478,3.06991 -0.798677,1.46742 -0.92207,3.22631 -0.928513,13.23492 l -0.0053,8.48552 -1.158582,0.51909 c -6.153496,2.75698 -13.157736,4.66017 -20.199557,5.48861 -3.189255,0.37522 -10.132335,0.52694 -12.895476,0.28181 z m -102.559346,-0.21018 c -7.203018,-0.66722 -13.824779,-3.06312 -18.985344,-6.86932 -3.410978,-2.51579 -7.418469,-6.96777 -9.694699,-10.77 -1.25568,-2.09747 -2.90463,-5.70691 -3.65523,-8.001 -2.61586,-7.99512 -2.81707,-18.07306 -0.51933,-26.01083 3.75882,-12.98498 14.393072,-23.164098 27.025723,-25.869026 3.247787,-0.695419 6.28902,-0.899855 11.648401,-0.783019 5.212373,0.11363 7.231571,0.352153 10.70281,1.264262 8.727857,2.293359 16.116163,7.849403 21.072358,15.846503 3.878153,6.2576 5.712959,13.09555 5.722126,21.32515 0.01008,9.1114 -2.178268,16.72888 -6.788804,23.63056 -6.107481,9.14256 -14.267896,14.33941 -25.042976,15.94829 -2.648368,0.39542 -8.691532,0.5472 -11.485035,0.28843 z m 7.455196,-4.22397 c 3.090459,-0.49918 5.47794,-1.7036 7.762618,-3.916 3.675432,-3.55917 6.305363,-9.47062 7.538249,-16.94421 0.734943,-4.45506 0.915299,-7.246 0.910243,-14.08554 -0.0093,-12.63335 -1.142545,-19.51096 -4.23292,-25.69021 -2.807935,-5.61451 -6.603112,-8.646391 -12.004707,-9.590272 -2.183507,-0.381556 -5.183541,-0.284634 -7.126445,0.230223 -6.964487,1.845548 -12.034862,8.830489 -14.090543,19.411139 -0.759808,3.91066 -1.120559,7.7104 -1.25523,13.22122 -0.398516,16.30658 2.647865,27.87394 8.871538,33.68618 2.122034,1.98175 4.730421,3.2392 7.783931,3.7525 1.03758,0.17441 4.580557,0.12892 5.843266,-0.075 z m -149.321679,-27.26536 -24.46503,-30.50233 -0.0525,23.70198 c -0.0569,25.69539 -0.0627,25.53785 1.03154,27.92794 1.23125,2.68941 4.66737,4.53893 8.43261,4.53893 h 1.56961 v 1.51118 1.5112 h -12.89548 -12.89548 v -1.5112 -1.51118 l 0.95709,-0.007 c 1.60786,-0.0119 4.02752,-0.53481 5.36074,-1.15871 2.24608,-1.05106 3.41879,-2.71312 4.04074,-5.72685 0.2835,-1.37376 0.3205,-4.60823 0.3205,-28.01533 v -26.46232 l -3.27424,-3.232155 c -3.70418,-3.656577 -4.22567,-4.066508 -5.43434,-4.27182 l -0.86228,-0.146468 -0.06,-1.254484 -0.06,-1.254476 h 11.65239 11.65238 l 19.03436,23.261803 c 10.4689,12.79399 19.10884,23.26653 19.19989,23.27232 0.26418,0.0168 0.0329,-35.56873 -0.23879,-36.74345 -0.9529,-4.119904 -4.26315,-6.549169 -8.9435,-6.563303 l -1.15857,-0.0038 v -1.613506 -1.613506 l 12.13987,0.05194 12.13989,0.05194 v 1.507613 1.507614 l -2.21641,0.449706 c -3.763,0.763517 -4.79758,1.366127 -5.9016,3.437465 -1.44373,2.708717 -1.33596,-0.08899 -1.40472,36.468727 l -0.0618,32.89354 h -1.57093 -1.57094 z m 280.492863,28.08442 v -1.81342 l 2.065292,-0.002 c 4.818334,-0.005 7.270917,-1.69606 7.803381,-5.37862 0.282647,-1.95475 0.27507,-56.94066 -0.0081,-58.26067 -0.440904,-2.055913 -2.048988,-3.689234 -4.310514,-4.378142 -0.559095,-0.17032 -2.03662,-0.363135 -3.283351,-0.428483 L 63.575245,95.540907 V 94.059658 92.57841 h 31.734968 31.734957 v 11.08206 11.08204 h -1.26115 -1.26117 l -0.36667,-1.6623 c -0.20167,-0.91427 -0.67163,-2.58355 -1.04435,-3.7095 -1.74925,-5.28433 -4.02611,-8.0832 -8.25691,-10.149969 -3.80896,-1.860703 -6.01742,-2.186164 -15.053737,-2.2185 -6.30809,-0.02262 -6.607689,0.01569 -7.455767,0.952821 -0.970542,1.072429 -0.964297,0.972172 -0.964297,15.498658 v 13.63456 l 2.972001,-0.11022 c 1.770795,-0.0657 3.460646,-0.24276 4.18096,-0.43813 5.87734,-1.59415 8.98549,-6.39863 10.27165,-15.87762 l 0.12986,-0.95709 h 1.49885 1.49884 v 19.44396 19.44397 h -1.50206 -1.50206 l -0.11706,-0.75559 c -0.82199,-5.30478 -2.13868,-8.84231 -4.42099,-11.87771 -2.15093,-2.86066 -4.663637,-3.85216 -10.672767,-4.21142 l -2.360177,-0.14111 0.07357,13.88282 c 0.05239,9.89496 0.14135,14.0854 0.309575,14.58804 0.367582,1.09838 1.353584,2.13783 2.615926,2.75771 l 1.154471,0.56691 5.742512,-0.002 c 5.16398,-0.002 5.97116,-0.0485 8.0119,-0.45994 9.4209,-1.8992 15.2524,-7.21716 18.50913,-16.87908 l 0.78112,-2.31741 1.71267,0.0571 c 1.57827,0.0526 1.7089,0.0887 1.66432,0.46007 -0.12051,1.0043 -3.69946,22.9981 -3.77881,23.22194 -0.0709,0.20006 -6.72021,0.25186 -32.33428,0.25186 H 63.57525 v -1.81342 z M -177.00597,165.3176 v -1.81403 h 1.90425 c 4.27675,0 6.73065,-1.29297 7.69168,-4.05279 0.36285,-1.04202 0.37792,-2.2536 0.37792,-30.40233 V 99.731394 l -0.56478,-1.150099 c -1.10123,-2.242549 -3.32056,-3.339827 -7.14228,-3.531287 l -2.26679,-0.113561 v -1.481241 -1.481249 h 31.73497 31.73496 v 11.082053 11.08205 h -1.27538 -1.27538 l -0.35135,-1.66231 c -0.50268,-2.3784 -1.60862,-5.59465 -2.53743,-7.37927 -1.54286,-2.96443 -3.59688,-4.93764 -6.75072,-6.485043 -3.73684,-1.833463 -6.1045,-2.181625 -15.05374,-2.213656 -6.40416,-0.02292 -6.57564,7.62e-4 -7.55029,1.047687 -0.24197,0.259869 -0.53665,0.727746 -0.65485,1.03972 -0.14457,0.381541 -0.21492,5.056922 -0.21492,14.282922 v 13.71571 l 2.97201,-0.11022 c 4.59393,-0.17037 7.25301,-1.11271 9.34478,-3.31168 2.68732,-2.825 4.07225,-6.40021 5.11544,-13.20556 l 0.11582,-0.7556 h 1.50207 1.50205 v 19.44397 19.44397 h -1.50205 -1.50207 l -0.10554,-0.65486 c -0.8895,-5.51874 -2.209,-9.07134 -4.43413,-11.93839 -2.30115,-2.96497 -4.62236,-3.88986 -10.67,-4.25142 l -2.35899,-0.14102 0.0711,13.88275 c 0.0537,10.49255 0.13331,14.07074 0.32595,14.65261 0.35986,1.08688 1.46237,2.22392 2.69803,2.78254 1.03218,0.4666 1.18648,0.47738 6.79867,0.475 6.39038,-0.003 8.39957,-0.25864 12.04173,-1.5338 7.00485,-2.45245 11.94293,-7.88258 14.59015,-16.04393 l 0.6699,-2.06529 h 1.6506 c 0.90782,0 1.68544,0.068 1.72802,0.15112 0.0426,0.0831 -0.79148,5.45539 -1.85348,11.93839 l -1.93092,11.78728 -32.28749,0.051 -32.28749,0.051 z m 154.968302,-26.31192 c -2.527171,-0.67959 -4.60028,-2.42564 -5.826963,-4.90767 -0.726822,-1.47061 -0.742598,-1.55224 -0.742598,-3.84061 0,-2.28835 0.01572,-2.36999 0.742598,-3.84058 1.603976,-3.24542 4.727563,-5.23163 8.215749,-5.22415 5.410318,0.0116 9.7779764,5.13465 8.887644,10.4248 -0.89666,5.32781 -6.146791,8.76765 -11.27643,7.38821 z"
       style="fill:#ffffff;stroke-width:0.20149185" />
  </g>
</svg>
