<?xml version="1.0" encoding="UTF-8" standalone="no"?>
<svg
   xmlns:dc="http://purl.org/dc/elements/1.1/"
   xmlns:cc="http://creativecommons.org/ns#"
   xmlns:rdf="http://www.w3.org/1999/02/22-rdf-syntax-ns#"
   xmlns:svg="http://www.w3.org/2000/svg"
   xmlns="http://www.w3.org/2000/svg"
   id="svg3550"
   version="1.1"
   viewBox="0 0 319.29642 79.375008"
   height="79.375008mm"
   width="319.29642mm">
  <defs
     id="defs3544" />
  <metadata
     id="metadata3547">
    <rdf:RDF>
      <cc:Work
         rdf:about="">
        <dc:format>image/svg+xml</dc:format>
        <dc:type
           rdf:resource="http://purl.org/dc/dcmitype/StillImage" />
        <dc:title></dc:title>
      </cc:Work>
    </rdf:RDF>
  </metadata>
  <g
     transform="translate(124.9294,-81.448497)"
     id="layer1">
    <path
       id="path4157"
       d="m -89.743876,160.56345 c -0.46662,-0.20093 -2.28009,-0.38507 -4.02994,-0.40922 -2.5071,-0.0345 -3.96825,-0.34322 -6.892754,-1.45596 -11.27717,-4.29083 -19.64809,-12.85461 -23.2933,-23.82997 -0.91746,-2.7624 -0.97582,-3.59094 -0.96909,-13.75665 0.008,-11.83442 0.11953,-12.5428 2.84199,-18.02871 4.98736,-10.049771 12.67825,-16.573383 24.071104,-20.417737 l 3.60575,-1.216706 H 34.760249 163.93062 l 3.60575,1.216706 c 11.1818,3.77314 18.79527,10.079073 23.56163,19.515197 2.22504,4.40499 2.49832,5.24473 2.87169,8.82427 0.53327,5.11263 0.52889,15.62823 -0.008,20.5 -0.44871,4.06762 -1.45409,6.7759 -4.22901,11.39209 -5.70352,9.48801 -16.30016,16.39361 -26.64991,17.36716 -5.41355,0.50923 -251.661606,0.80096 -252.826086,0.29953 z M 157.21871,149.50188 c 11.82882,-1.62441 21.60747,-9.29483 24.74977,-19.41384 2.51937,-8.113 1.91441,-14.68182 -2.05732,-22.33885 -1.82463,-3.51766 -6.73592,-8.622118 -10.33466,-10.741114 -3.02274,-1.779833 -7.30594,-3.236281 -11.38217,-3.870366 -2.37138,-0.368882 -34.0622,-0.460898 -125.555096,-0.364555 l -122.38311,0.128872 -4.00695,1.398406 c -5.22137,1.822231 -8.463434,3.827957 -12.115024,7.495077 -6.24201,6.26852 -9.11075,15.12899 -7.64613,23.61602 2.20485,12.77637 11.37381,21.66685 24.642244,23.8938 4.42068,0.74196 240.742376,0.93071 246.088446,0.19655 z M 34.336044,141.71402 c -4.92633,-1.37296 -8.85514,-4.5501 -10.78876,-8.72463 -1.59721,-3.44828 -1.54884,-8.15036 0.12003,-11.66564 2.98692,-6.29165 9.65747,-9.55885 18.364329,-8.99475 4.619427,0.29927 8.167801,1.77637 11.295599,4.70207 2.767012,2.58821 4.055575,5.26155 4.267135,8.85288 l 0.168672,2.86338 H 47.322164 36.881281 v 2.3542 c 0,2.76083 0.885199,4.731 2.381211,5.29978 2.030584,0.77202 3.463447,-0.65572 4.163055,-4.14815 l 0.482897,-2.41058 6.561286,0.0175 6.561278,0.0175 0.131117,1.09953 c 0.430454,3.60975 -5.507638,9.15205 -11.5211,10.75319 -2.676305,0.7126 -8.721159,0.70396 -11.304981,-0.0162 z m 8.896518,-20.64349 c -0.43111,-1.50318 -1.068579,-2.37137 -2.17657,-2.96435 -1.05165,-0.56283 -3.236261,0.59238 -3.768732,1.99289 -0.821565,2.16088 -0.660639,2.2852 2.958045,2.2852 h 3.364025 z m 98.683728,20.60412 c -4.95756,-1.25627 -9.10869,-4.50973 -11.01538,-8.63335 -1.35543,-2.93137 -1.27145,-9.18676 0.16299,-12.14175 1.37244,-2.82726 4.09332,-5.39606 7.48309,-7.06483 2.51627,-1.23876 3.22942,-1.38537 7.54147,-1.55043 7.03952,-0.26945 11.0485,1.09611 14.95849,5.09522 2.63633,2.69643 3.66683,5.34152 3.68509,9.4589 0.0183,4.12547 -0.89518,7.06125 -2.94074,9.45102 -1.72072,2.01026 -4.62343,3.88707 -7.61738,4.92515 -2.95528,1.02466 -9.11692,1.25593 -12.25763,0.46007 z m 7.41138,-6.38569 c 0.96759,-1.02935 1.03697,-1.43835 1.17325,-6.91603 0.0866,-3.4782 -0.0483,-6.53907 -0.33481,-7.60327 -0.93225,-3.4621 -3.97328,-3.9715 -5.59514,-0.93725 -0.65691,1.22898 -0.79007,2.42884 -0.79007,7.11906 0,3.8875 0.18543,6.08477 0.59656,7.06873 1.05439,2.52351 3.24337,3.08456 4.95021,1.26876 z m -45.56397,5.55141 c -2.46587,-0.93978 -5.586527,-3.412 -6.999329,-5.54494 -1.665291,-2.51414 -2.342284,-5.50878 -2.099734,-9.28814 0.242589,-3.78005 1.467538,-6.49273 4.132409,-9.15124 2.913694,-2.90674 5.453774,-3.96774 9.562744,-3.99439 1.86651,-0.0121 4.10949,0.12982 4.98441,0.31537 l 1.59076,0.33737 v -5.95809 -5.95809 h 6.99939 6.99938 v 19.46805 c 0,18.02557 -0.0541,19.48879 -0.73015,19.74821 -0.40157,0.15411 -3.69446,0.27816 -7.31753,0.27569 -3.62306,-0.003 -8.59176,0.0798 -11.04154,0.18282 -3.26288,0.13722 -4.88921,0.0215 -6.08081,-0.43262 z m 10.10193,-6.74308 c 1.31517,-1.31517 1.62941,-3.15122 1.42222,-8.30971 -0.14987,-3.73155 -0.28528,-4.33719 -1.18342,-5.29321 -1.21478,-1.29307 -2.68103,-1.38581 -3.82492,-0.24192 -1.2042,1.2042 -1.37546,2.31258 -1.21471,7.86182 0.13962,4.82008 0.17474,4.97736 1.33362,5.97328 1.49406,1.28398 2.19101,1.28594 3.46721,0.0101 z m -208.194686,6.67954 c -0.16124,-0.16124 -0.29317,-9.04238 -0.29317,-19.73588 v -19.44273 h 6.93363 c 6.07215,0 7.01469,0.0922 7.58599,0.74236 0.62801,0.71467 2.68678,4.00841 9.61175,15.37743 l 3.22984,5.30256 0.11324,-10.66511 0.11324,-10.66511 6.46193,-0.1793 c 3.55407,-0.0986 6.70245,-0.0982 6.9964,9.4e-4 0.42163,0.14218 0.51119,4.31217 0.42421,19.75271 l -0.11026,19.57248 h -6.78316 -6.78316 l -5.16276,-8.272 c -2.83951,-4.54959 -5.89563,-9.44676 -6.79139,-10.88259 l -1.62864,-2.61061 -0.2121,10.8826 -0.2121,10.8826 -6.60017,0.11641 c -3.63009,0.064 -6.73209,-0.0156 -6.89332,-0.17676 z m 45.37956,-0.0103 c -0.15555,-0.15555 -0.28281,-6.2641 -0.28281,-13.57456 v -13.2918 h 6.78728 6.78728 v 13.57455 13.57455 h -6.50448 c -3.57747,0 -6.63174,-0.12726 -6.78727,-0.2828 z m 17.403,0.0106 c -0.16138,-0.16138 -0.29341,-6.28606 -0.29341,-13.61041 v -13.31699 l 7.10543,0.074 c 5.65825,0.0589 7.61647,-0.0759 9.6146,-0.66152 5.4266898,-1.5907 11.9933998,-0.0727 15.12754981,3.49685 2.89186999,3.29365 3.12096999,4.37097 3.13588999,14.74566 l 0.0134,9.33251 h -6.78728 -6.7872798 l -0.2121,-9.26409 -0.21211,-9.26407 -1.19022,-1.0229 c -0.65461,-0.56258 -1.57961,-1.02288 -2.05556,-1.02288 -1.07986,0 -3.19328,1.221 -3.6324,2.09857 -0.1813,0.36233 -0.4259,4.6675 -0.54356,9.56706 l -0.21394,8.90831 -6.3878,0.11665 c -3.51331,0.0641 -6.51986,-0.0154 -6.68124,-0.17674 z M 6.7627338,128.75814 v -12.3127 h -2.96943 -2.96943999 v -3.18154 -3.18153 h 2.96943999 2.96943 v -2.556 -2.556 l 6.6812302,0.11682 6.68123,0.11683 0.12668,2.421 0.12667,2.42101 3.05486,0.12422 3.05486,0.12422 0.12829,2.47497 c 0.16993,3.27825 -0.21607,3.67601 -3.56737,3.67601 h -2.69888 l -0.11255,12.19589 -0.11256,12.19589 -6.68123,0.11681 -6.6812302,0.11683 z m 52.0464102,12.01899 c -0.16138,-0.16138 -0.293417,-6.27471 -0.293417,-13.58517 v -13.29175 h 6.78728 c 3.790438,0 6.78727,0.1703 6.78727,0.38571 0,0.21213 0.811293,-0.0125 1.802873,-0.49935 1.254594,-0.61591 2.89941,-0.93909 5.408609,-1.06271 4.898046,-0.24132 7.824112,0.8198 10.897265,3.95184 3.073649,3.13253 3.28837,4.11059 3.302117,15.04111 l 0.01151,9.12041 h -6.575174 -6.575175 l -0.212095,-9.05012 -0.212106,-9.0501 -1.385358,-1.23686 c -1.753299,-1.56537 -3.111668,-1.56537 -4.864966,0 l -1.385379,1.23686 -0.212106,9.0501 -0.212095,9.05012 -6.387816,0.11665 c -3.513304,0.0641 -6.519853,-0.0153 -6.681222,-0.17674 z M 161.80172,115.00588 c -1.79641,-0.78275 -3.92773,-3.35296 -4.26317,-5.14106 -0.15564,-0.82958 -0.20081,-2.6442 -0.10041,-4.03251 0.14484,-2.00239 0.44236,-2.84515 1.43923,-4.07681 1.88509,-2.329092 3.69177,-3.126658 7.08266,-3.126658 3.16409,0 4.55878,0.530825 6.30916,2.401298 4.05907,4.33756 2.75213,11.80535 -2.44617,13.97733 -1.76757,0.73854 -6.32479,0.73764 -8.02132,-0.002 z m 4.19124,-3.863 c -0.1343,-0.34997 -0.31921,-0.6363 -0.4109,-0.6363 -0.0917,0 -0.16672,0.28633 -0.16672,0.6363 0,0.34998 0.18491,0.63631 0.41089,0.63631 0.226,0 0.30101,-0.28633 0.16673,-0.63631 z m -3.99814,-4.13599 c -0.0236,-1.58522 -0.076,-1.68022 -0.43329,-0.78693 -0.36574,0.91435 -0.18677,2.58979 0.27666,2.58979 0.10091,0 0.17141,-0.81128 0.15663,-1.80286 z m 8.24863,1.14453 c 0.14487,-0.37751 0.0737,-0.54779 -0.16671,-0.39918 -0.23064,0.14256 -0.41934,0.4388 -0.41934,0.65835 0,0.61019 0.30405,0.47573 0.58605,-0.25917 z m -219.475756,-1.6498 c 0,-2.66933 0.14316,-4.93129 0.31815,-5.02657 0.17498,-0.0952 3.22926,-0.0829 6.78728,0.0275 l 6.46913,0.20071 v 4.82586 4.82587 h -6.78728 -6.78728 z"
       style="fill:#ffffff;stroke-width:0.42420483" />
  </g>
</svg>
