<?xml version="1.0" encoding="UTF-8" standalone="no"?>
<svg
   xmlns:dc="http://purl.org/dc/elements/1.1/"
   xmlns:cc="http://creativecommons.org/ns#"
   xmlns:rdf="http://www.w3.org/1999/02/22-rdf-syntax-ns#"
   xmlns:svg="http://www.w3.org/2000/svg"
   xmlns="http://www.w3.org/2000/svg"
   id="svg1648"
   version="1.1"
   viewBox="0 0 79.245811 60.972317"
   height="60.972317mm"
   width="79.245811mm">
  <defs
     id="defs1642" />
  <metadata
     id="metadata1645">
    <rdf:RDF>
      <cc:Work
         rdf:about="">
        <dc:format>image/svg+xml</dc:format>
        <dc:type
           rdf:resource="http://purl.org/dc/dcmitype/StillImage" />
        <dc:title></dc:title>
      </cc:Work>
    </rdf:RDF>
  </metadata>
  <g
     transform="translate(9.0338851,-80.113862)"
     id="layer1">
    <path
       id="path2255"
       d="m 27.845325,139.3235 c -3.171034,-0.96947 -5.950837,-1.81844 -6.177339,-1.88658 l -0.411823,-0.12391 v -28.61557 c 0,-27.224625 0.0052,-28.613997 0.106769,-28.583102 0.05872,0.01786 0.477409,0.114336 0.930414,0.214393 3.556015,0.785426 8.29486,2.092408 13.64602,3.763593 3.61257,1.12822 5.24116,1.747616 7.28067,2.769021 2.9368,1.470777 4.75849,2.851583 6.40029,4.851293 1.10183,1.34202 1.54488,2.041007 2.07126,3.267758 1.01473,2.364866 1.47589,5.086794 1.48268,8.751354 0.005,2.44577 -0.20432,3.98438 -0.77215,5.68837 -0.69657,2.09033 -1.79234,3.61419 -3.44707,4.79375 -2.00005,1.42573 -4.2904,1.74736 -7.16876,1.0067 -0.92763,-0.2387 -2.19231,-0.69687 -2.85226,-1.03333 l -0.22879,-0.11664 -2.4e-4,-10.01978 c -1.8e-4,-8.504698 -0.0138,-10.102801 -0.0896,-10.56887 -0.16839,-1.035332 -0.49713,-1.80839 -1.00556,-2.364703 -0.77807,-0.851327 -2.17004,-1.336635 -2.77009,-0.965785 -0.26585,0.164304 -0.70969,0.675826 -0.88083,1.015141 -0.29356,0.58205 -0.27893,-0.599762 -0.31456,25.415837 l -0.0336,24.50374 z m 9.044381,-3.11284 0.0157,-3.73098 8.08392,-2.90912 c 7.93302,-2.85481 12.32727,-4.4825 12.94107,-4.79353 0.44526,-0.22563 0.8358,-0.60502 0.88327,-0.85804 0.10918,-0.58202 -0.55794,-1.14523 -1.58473,-1.33788 -0.23871,-0.0448 -0.76348,-0.1522 -1.16615,-0.23869 -1.02788,-0.22078 -2.0461,-0.22457 -3.02276,-0.0112 -1.90255,0.41557 -3.03587,0.74724 -5.27471,1.54367 -2.48544,0.88415 -10.82571,3.80362 -10.86609,3.80362 -0.0134,0 -0.0243,-1.72571 -0.0243,-3.8349 v -3.8349 l 1.08294,-0.31397 c 4.19947,-1.21754 7.55821,-1.75419 11.85134,-1.89358 4.99566,-0.16221 9.33362,0.44533 13.83072,1.93703 3.2738,1.08593 5.16851,2.15909 6.02187,3.41078 0.41771,0.61268 0.54522,1.01927 0.54993,1.75355 0.003,0.44702 -0.0268,0.69887 -0.11083,0.94218 -0.49511,1.43284 -2.10746,2.69327 -4.88647,3.81994 -0.46978,0.19046 -1.34446,0.56507 -1.94373,0.83247 -0.78238,0.34911 -3.80128,1.44645 -10.70739,3.89202 -5.28979,1.87321 -10.97373,3.88884 -12.63097,4.47919 -1.65724,0.59034 -3.02333,1.07335 -3.03576,1.07335 -0.0124,0 -0.0155,-1.67894 -0.007,-3.73098 z M 7.5287421,133.83148 c -4.688935,-0.29869 -10.050905,-1.50129 -13.05228,-2.9274 -1.844892,-0.87661 -3.045447,-1.99227 -3.405392,-3.16459 -0.05667,-0.18456 -0.103867,-0.54205 -0.10489,-0.79442 -0.0016,-0.39514 0.02522,-0.51377 0.19312,-0.85415 0.73689,-1.49391 2.892786,-2.90412 6.882268,-4.50181 2.29306502,-0.91832 18.9813709,-6.87138 19.3556639,-6.90457 0.0084,-7.5e-4 0.01525,1.68418 0.01525,3.74428 0,3.51058 -0.0067,3.74827 -0.106769,3.78769 -0.05872,0.0231 -2.1247,0.75606 -4.59106,1.62875 -6.4346469,2.27681 -7.5509929,2.69234 -8.5338269,3.17648 -1.034482,0.50958 -1.349916,0.76846 -1.349916,1.1079 0,0.35947 0.234087,0.69793 0.671119,0.97036 0.102435,0.0639 0.843787,0.18032 2.257398,0.35462 l 2.104871,0.25953 2.1658819,-0.41102 2.165882,-0.41103 1.464258,-0.57373 c 1.247618,-0.48885 3.64661,-1.37202 3.72687,-1.37202 0.01391,0 0.02529,1.45047 0.02529,3.22327 v 3.22326 l -1.357489,0.16403 c -0.74662,0.0902 -1.940374,0.20468 -2.652787,0.25435 -1.402605,0.0978 -4.4888009,0.10842 -5.8734669,0.0202 z"
       style="fill:#ffffff;stroke-width:0.06101076" />
  </g>
</svg>
