<?xml version="1.0" encoding="UTF-8" standalone="no"?>
<svg
   xmlns:dc="http://purl.org/dc/elements/1.1/"
   xmlns:cc="http://creativecommons.org/ns#"
   xmlns:rdf="http://www.w3.org/1999/02/22-rdf-syntax-ns#"
   xmlns:svg="http://www.w3.org/2000/svg"
   xmlns="http://www.w3.org/2000/svg"
   id="svg8"
   version="1.1"
   viewBox="0 0 246.36615 79.375343"
   height="79.375343mm"
   width="246.36615mm">
  <defs
     id="defs2" />
  <metadata
     id="metadata5">
    <rdf:RDF>
      <cc:Work
         rdf:about="">
        <dc:format>image/svg+xml</dc:format>
        <dc:type
           rdf:resource="http://purl.org/dc/dcmitype/StillImage" />
        <dc:title></dc:title>
      </cc:Work>
    </rdf:RDF>
  </metadata>
  <g
     transform="translate(67.015186,-42.7351)"
     id="layer1">
    <path
       id="path1037"
       d="m 103.71223,121.87179 c 0,-0.13125 1.23513,-3.70866 2.74474,-7.94979 1.5096,-4.24113 3.94085,-11.08016 5.40276,-15.19784 1.46192,-4.11768 3.83026,-10.78624 5.26299,-14.81902 1.43273,-4.03278 4.42546,-12.47266 6.65052,-18.75531 2.22505,-6.28264 4.3943,-12.3478 4.82054,-13.47813 2.14961,-5.70044 5.9391,-8.48452 12.01163,-8.82474 5.71788,-0.32036 10.03382,1.79912 12.60797,6.19158 0.47499,0.81052 2.6019,6.3648 4.72646,12.34286 2.12457,5.97806 6.13471,17.25991 8.91143,25.07077 11.10159,31.22855 12.49969,35.19047 12.49969,35.4217 0,0.13224 -10.52382,0.20482 -23.38626,0.16131 l -23.38626,-0.0791 -0.0852,-4.70813 -0.0852,-4.70812 h 16.70023 16.70024 l -0.21117,-0.69464 c -0.1161,-0.38206 -1.66835,-4.72357 -3.44935,-9.6478 -7.18964,-19.87835 -11.07718,-30.64523 -13.82247,-38.28246 -1.58695,-4.41483 -2.98309,-8.276 -3.10251,-8.58039 -0.3102,-0.7906 -2.38287,-1.76225 -3.75626,-1.76089 -1.28838,10e-4 -2.96025,0.86979 -3.45544,1.79507 -0.17495,0.32688 -2.8807,7.87117 -6.01279,16.76509 -15.16982,43.07645 -17.23042,48.89149 -17.5103,49.41446 -0.27285,0.50983 -0.78854,0.56217 -5.5384,0.56217 -2.88065,0 -5.23754,-0.10735 -5.23754,-0.23863 z m -170.727406,-5.45758 v -5.41805 l 14.433101,-0.006 c 11.247914,-0.005 14.887798,-0.10175 16.493463,-0.44204 7.592273,-1.60913 12.112913,-7.87105 11.601394,-16.07007 -0.209513,-3.35822 -1.381475,-5.9822 -3.692448,-8.26723 -2.194051,-2.16943 -4.707343,-3.31513 -10.57757,-4.82187 -7.724017,-1.98256 -10.191773,-3.43551 -12.235159,-7.20375 -1.034204,-1.90718 -1.049403,-1.99112 -1.049403,-5.79434 0,-3.52441 0.07056,-4.00961 0.813553,-5.59418 1.144109,-2.44004 2.777176,-4.11428 5.155531,-5.28554 l 2.043518,-1.00637 15.212111,-0.0908 15.21211,-0.0908 v 5.37733 5.37732 l -13.605241,0.13222 c -14.636291,0.14224 -14.164611,0.0847 -14.175688,1.7277 -0.0061,0.90466 0.43019,1.07752 5.706769,2.26113 5.495463,1.2327 7.92258,2.05808 10.040622,3.41445 4.010226,2.56813 6.845665,5.68171 8.812606,9.67708 2.061989,4.18844 2.43562,5.96338 2.437073,11.57736 0.0015,5.62846 -0.529656,7.9858 -2.7816,12.34598 -2.597455,5.02915 -6.355981,8.69373 -11.407922,11.12278 -4.812173,2.31377 -4.314461,2.26058 -22.305706,2.38423 l -16.131114,0.11085 z m 73.2063248,4.78274 c -8.479105,-2.08176 -15.200115,-9.5009 -17.1474688,-18.92865 -0.72411,-3.50564 -0.72411,-36.46233 0,-39.96798 1.6287258,-7.88516 6.1813078,-13.9598 13.0132718,-17.36397 4.2501,-2.11771 4.803495,-2.1694 23.2217532,-2.1694 h 16.378899 v 5.40275 5.40277 h -15.11255 c -9.873286,0 -15.679732,0.11867 -16.7485752,0.3423 -3.573488,0.74765 -7.033253,3.3955 -8.676397,6.6403 -1.76232799,3.48015 -1.75841899,3.43187 -1.75841899,21.72924 0,14.5355 0.06811,17.09993 0.492541,18.54493 1.24171899,4.22744 3.76090299,7.27431 7.46547699,9.02926 l 2.07569,0.98329 16.1311172,0.0925 16.131116,0.0925 v 5.38747 5.38748 l -16.59421,-0.0229 c -14.926275,-0.0204 -16.8231832,-0.0789 -18.8722452,-0.58201 z m 55.3795072,-0.005 c -4.42563,-1.17755 -7.39806,-2.96469 -10.727915,-6.45 -3.474468,-3.6367 -5.664991,-7.96623 -6.581575,-13.00839 -0.606471,-3.33624 -0.606471,-35.56368 0,-38.89992 0.91773,-5.04848 3.107023,-9.37161 6.594425,-13.02183 2.707521,-2.83393 5.703876,-4.8013 9.171419,-6.02185 l 2.469835,-0.86937 20.1446,-0.0879 20.144595,-0.0877 v 5.41339 5.41339 H 84.740564 c -12.02028,0 -18.591729,0.11435 -19.681504,0.34229 -4.922001,1.02978 -8.869617,5.13409 -9.980525,10.37667 -0.646825,3.05251 -0.646825,32.93325 0,35.98575 1.110908,5.2426 5.058524,9.34691 9.980525,10.37669 1.054193,0.22056 6.461637,0.34228 15.204927,0.34228 H 93.832889 V 95.86842 80.74067 H 81.638074 69.443258 v -5.2484 -5.24841 h 16.671394 16.671388 v 25.77892 25.77891 l -19.527136,-0.017 c -18.035134,-0.0158 -19.692265,-0.0609 -21.688248,-0.59203 z m 56.797774,-2.40109 c 2.1525,-6.28298 7.62467,-22.14487 10.19816,-29.56084 1.47312,-4.24503 4.54259,-13.12686 6.82106,-19.7374 2.27846,-6.61053 4.37136,-12.27186 4.65088,-12.58073 0.64993,-0.71816 2.3256,-0.72988 2.96737,-0.0208 0.2692,0.29747 0.6515,0.95737 0.84955,1.46647 0.45382,1.16659 9.58515,26.77351 10.95391,30.71802 0.55976,1.6131 1.7122,4.87792 2.56098,7.25513 0.84877,2.37723 2.24401,6.30195 3.10054,8.72161 l 1.55731,4.39941 h -14.80206 -14.80205 v -0.92619 c 0,-0.50942 -0.1063,-0.92619 -0.23632,-0.92619 -0.12997,0 -0.84963,1.84079 -1.59924,4.09065 -0.7496,2.24988 -1.84065,5.44522 -2.42453,7.10079 l -1.06161,3.01011 h -4.8826 -4.88259 l 1.03124,-3.01011 z m 29.80085,-18.98883 c 0,-0.25189 -6.26571,-18.97099 -6.47549,-19.34586 -0.16965,-0.30313 -1.04154,2.00493 -2.62103,6.93838 -1.30175,4.06593 -2.70506,8.43503 -3.11847,9.70911 -0.4134,1.27409 -0.75165,2.42025 -0.75165,2.54703 0,0.12677 2.91749,0.23049 6.48332,0.23049 3.56583,0 6.48332,-0.0356 6.48332,-0.0791 z m -215.184456,3.01208 v -5.40277 h 13.407679 c 11.777162,0 13.466681,-0.059 13.892827,-0.48514 0.637906,-0.63791 0.615427,-1.4695 -0.05513,-2.03961 -0.297151,-0.25265 -2.355282,-0.82726 -4.573624,-1.27692 -5.554061,-1.12583 -8.506836,-2.1512 -10.987291,-3.8154 -6.151681,-4.12733 -9.712351,-10.27039 -10.451901,-18.03218 -1.25765,-13.19937 6.012836,-24.39177 18.270303,-28.12585 2.192452,-0.66791 2.752874,-0.69255 18.084952,-0.79519 l 15.822386,-0.10595 v 5.41831 5.41831 l -14.124375,0.006 c -15.340179,0.006 -16.744397,0.12607 -19.850516,1.70006 -2.05164,1.03964 -4.626478,3.59179 -5.638392,5.58872 -1.458717,2.87864 -1.842709,4.8319 -1.697205,8.63321 0.122934,3.21169 0.213513,3.63495 1.194614,5.58218 1.3893,2.75742 4.13243,5.50244 6.812831,6.81752 1.125567,0.55224 3.626275,1.35615 5.557131,1.78646 8.057785,1.79579 11.033483,3.48606 12.909419,7.33288 2.668139,5.47135 0.635711,12.78197 -4.300404,15.46856 -3.09072,1.68218 -3.547185,1.72251 -19.531472,1.72649 l -14.741842,0.004 z m 76.8110378,4.84966 c -3.211562,-1.16669 -5.290849,-3.35568 -6.791707,-7.15005 -0.618625,-1.56397 -0.688124,-2.37823 -0.798413,-9.35415 L 2.0849388,83.51852 H 18.938343 35.791744 v 5.40276 5.40277 H 23.867067 11.94239 l 0.196624,0.98312 c 0.108144,0.54071 0.424895,1.23534 0.703896,1.54364 0.476056,0.52603 1.378484,0.56053 14.660987,0.56053 h 14.153707 v 5.40277 5.40277 l -15.204927,-0.0128 c -13.546846,-0.0117 -15.363254,-0.0704 -16.6568152,-0.54027 z m 55.4177532,-0.0218 c -2.349231,-0.81173 -3.956263,-2.05586 -5.348451,-4.14068 -2.325505,-3.48247 -2.307991,-3.32147 -2.307991,-21.21771 0,-14.23989 0.0561,-16.08075 0.537437,-17.63533 0.748298,-2.41677 2.743178,-5.2825 4.476416,-6.43055 2.825604,-1.8716 2.775217,-1.8674 22.364742,-1.8674 h 17.850272 v 5.40277 5.40277 H 85.874618 c -14.806498,0 -16.996835,0.0599 -17.597581,0.4806 l -0.686156,0.48061 v 14.16653 14.16655 l 0.686156,0.4806 c 0.548165,0.38394 1.632499,0.48059 5.391901,0.48059 4.336468,0 4.730832,-0.0469 5.025345,-0.59716 0.448266,-0.83759 0.39844,-1.44099 -0.165556,-2.00497 -0.3946,-0.39461 -1.287708,-0.48516 -4.785308,-0.48516 h -4.300161 v -5.40247 -5.40275 h 10.805533 10.805533 v 12.34917 12.34918 l -12.117633,-0.0105 c -10.842867,-0.009 -12.286523,-0.0685 -13.723076,-0.56482 z M 2.2058858,73.25368 c 0.113185,-6.95957 0.1727,-7.61711 0.845354,-9.33907 1.421993,-3.64023 3.547074,-5.84916 6.744622,-7.01075 1.2935612,-0.46993 3.1099692,-0.52884 16.6568152,-0.54028 l 15.204927,-0.0128 v 5.40277 5.40276 H 27.478455 13.299306 l -0.639867,0.81346 c -0.351927,0.44741 -0.639866,1.14205 -0.639866,1.54365 v 0.73019 h 11.886085 11.886086 v 5.2484 5.24841 H 18.937938 2.0841318 Z"
       style="fill:#ffffff;stroke-width:0.30872947" />
  </g>
</svg>
