<?xml version="1.0" encoding="UTF-8" standalone="no"?>
<svg
   xmlns:dc="http://purl.org/dc/elements/1.1/"
   xmlns:cc="http://creativecommons.org/ns#"
   xmlns:rdf="http://www.w3.org/1999/02/22-rdf-syntax-ns#"
   xmlns:svg="http://www.w3.org/2000/svg"
   xmlns="http://www.w3.org/2000/svg"
   id="svg955"
   version="1.1"
   viewBox="0 0 297.02988 296.94025"
   height="296.94025mm"
   width="297.02988mm">
  <defs
     id="defs949" />
  <metadata
     id="metadata952">
    <rdf:RDF>
      <cc:Work
         rdf:about="">
        <dc:format>image/svg+xml</dc:format>
        <dc:type
           rdf:resource="http://purl.org/dc/dcmitype/StillImage" />
        <dc:title></dc:title>
      </cc:Work>
    </rdf:RDF>
  </metadata>
  <g
     transform="translate(167.22755,14.229951)"
     id="layer1">
    <path
       id="path1610"
       d="m -26.785196,282.66248 c -5.22764,-0.38997 -9.31588,-0.80608 -12.89063,-1.31209 -45.52106,-6.44341 -85.425494,-33.66593 -108.407314,-73.95469 -18.75433,-32.87766 -24.04448,-73.17658 -14.47412,-110.25987 12.61607,-48.884808 49.68041,-88.402749 97.539644,-103.99661 33.26017,-10.837082 69.2049903,-9.690953 101.513669,3.236847 34.237711,13.699666 62.500621,40.085717 78.539927,73.324313 19.69126,40.8066 19.68836,88.51553 -0.008,129.19923 -20.214276,41.75378 -58.910686,71.83262 -104.186306,80.98435 -9.5878697,1.93802 -16.7359497,2.66203 -27.51958,2.78734 -4.75342,0.0553 -9.30176,0.0513 -10.10743,-0.009 z m 1.61133,-54.61248 v -36.03516 l -0.80567,0.001 c -4.02061,0.006 -15.30882,1.20737 -22.27052,2.3703 -9.87704,1.64993 -24.97069,5.46349 -24.97069,6.30911 0,0.67179 3.47216,8.29378 5.9884,13.14559 9.40323,18.13124 21.73529,34.3288 36.26639,47.63411 2.79542,2.55961 2.87891,2.61003 4.32129,2.61003 h 1.4708 z m 18.6827103,33.44029 c 14.01064,-12.75421 26.9824497,-29.7556 36.0987397,-47.3125 2.49567,-4.80636 6.156048,-12.82199 6.156048,-13.48073 0,-0.27856 -1.694836,-0.88521 -5.346678,-1.9138 -12.90742,-3.63556 -25.7954897,-5.80473 -39.4042997,-6.63208 l -3.2959003,-0.20038 v 36.06718 36.06717 h 1.4708 c 1.4404903,0 1.5295303,-0.0535 4.3212903,-2.59486 z m -46.1333303,-3.77721 c -7.85984,-8.79258 -15.86603,-19.93059 -22.05941,-30.68847 -2.81119,-4.88304 -7.61736,-14.49843 -9.51846,-19.04297 -0.60665,-1.4502 -1.20457,-2.7481 -1.3287,-2.88422 -0.12414,-0.13612 -2.11823,0.57198 -4.43132,1.57357 -7.78126,3.36934 -17.412094,8.43743 -23.906454,12.58045 l -2.22191,1.41745 5.24847,5.24114 c 5.46995,5.46231 8.89711,8.45634 14.330514,12.51944 10.30025,7.70251 21.57857,13.78854 33.6839,18.17656 4.04727,1.46708 11.11709,3.62591 11.96409,3.65334 0.36981,0.012 -0.16423,-0.76033 -1.76072,-2.54629 z m 70.25308,1.41424 c 17.709424,-5.18393 34.07044,-14.03081 48.16433,-26.04388 1.61133,-1.37343 5.15996,-4.72925 7.88585,-7.45737 l 4.95616,-4.96022 -2.17296,-1.39871 c -8.10089,-5.21448 -27.64388,-14.96747 -28.39469,-14.17047 -0.12863,0.13654 -0.78683,1.56661 -1.46267,3.17794 -6.994165,16.67533 -18.93273,35.45001 -31.43724,49.43847 -1.26034,1.40992 -2.10553,2.56348 -1.87819,2.56348 0.22734,0 2.18008,-0.51716 4.33941,-1.14924 z M -116.87309,206.09318 c 6.06289,-3.65031 16.4928,-8.96995 22.705084,-11.58042 2.25586,-0.94794 4.128,-1.73744 4.16033,-1.75445 0.0323,-0.017 -0.4033,-1.47665 -0.96804,-3.24364 -4.1708,-13.04983 -7.29015,-30.56604 -7.92279,-44.48917 l -0.19449,-4.28019 h -24.710364 -24.71036 v 1.1692 c 0,0.64306 0.20725,3.1809 0.46055,5.63965 2.19571,21.3136 9.60727,41.73421 21.58989,59.48525 l 2.33043,3.4523 0.91992,-0.56766 c 0.50596,-0.31222 3.35888,-2.03611 6.33984,-3.83087 z m 205.885984,0.93631 c 10.24912,-15.18321 17.380486,-32.92431 20.402676,-50.75684 0.73624,-4.34424 1.64103,-12.26061 1.64103,-14.35814 v -1.1692 H 86.346244 61.635884 l -0.19079,4.19874 c -0.62348,13.72154 -3.43039,29.75494 -7.62504,43.55517 -0.56323,1.85302 -1.09897,3.56689 -1.19053,3.80859 -0.12618,0.33314 0.59543,0.74981 2.98285,1.72233 7.6794,3.12822 20.47451,9.77959 27.8861,14.49623 1.68141,1.07003 3.08717,1.9455 3.12391,1.9455 0.0367,0 1.11247,-1.54907 2.39051,-3.44238 z m -162.88952,-19.86638 c 14.26569,-4.32702 27.12722,-6.51786 46.57873,-7.93423 l 2.12403,-0.15466 v -19.16445 -19.16446 h -30.56069 -30.56069 l 0.096,1.83105 c 0.66099,12.6006 2.19385,23.01172 5.10066,34.64356 0.87552,3.50348 2.84201,10.34902 3.09287,10.7666 0.20459,0.34055 0.45863,0.28989 4.12904,-0.82341 z m 115.4251,-2.326 c 4.15505,-13.94577 6.54298,-28.05416 7.17775,-42.40763 l 0.0745,-1.68497 -30.54199,4e-4 -30.542,4e-4 v 19.16446 19.16445 l 2.12403,0.15431 c 15.5442103,1.12927 23.76158,2.26019 34.64351,4.76784 4.38643,1.01082 12.822357,3.31684 14.209025,3.88414 1.598271,0.65386 1.825849,0.41128 2.855155,-3.0434 z m -140.43108,-60.57129 c 0.815,-14.45198 3.64101,-29.96345 8.07132,-44.3021 0.64563,-2.08954 1.07733,-3.8804 0.95935,-3.97969 -0.11798,-0.0993 -2.06021,-0.95674 -4.31607,-1.90543 -8.414844,-3.53882 -18.358484,-8.812269 -29.059174,-15.411065 l -0.93416,-0.57607 -3.04706,4.632583 c -3.7,5.625272 -5.20586,8.244542 -8.13744,14.154072 -6.79914,13.70581 -11.11431,28.70432 -12.70733,44.16772 -0.2533,2.45874 -0.46055,4.99658 -0.46055,5.63964 v 1.1692 h 24.71436 24.714364 z m 73.70874,-15.5756 V 89.52577 l -2.12403,-0.15467 c -19.47169,-1.41783 -31.7802,-3.50566 -46.17549,-7.83251 -2.15311,-0.64718 -3.94791,-1.13656 -3.98845,-1.08752 -0.47675,0.57671 -3.3616,10.88025 -4.65949,16.64189 -2.17228,9.64319 -3.97575,22.79581 -3.98702,29.07715 l -0.003,1.68457 h 30.46873 30.46875 z m 73.82693,17.47989 c -0.002,-2.63324 -0.81465,-10.86394 -1.60434,-16.2463 -0.87724,-5.97902 -1.86725,-10.95205 -3.37086,-16.93241 -1.00575,-4.00023 -3.426971,-12.30408 -3.655384,-12.53654 -0.04613,-0.0469 -1.635469,0.38494 -3.531852,0.95976 -12.816904,3.88498 -28.9164637,6.82101 -41.7426237,7.61249 -1.53076,0.0945 -3.73901,0.2453 -4.9072203,0.3352 l -2.12403,0.16346 v 19.16445 19.16446 h 30.46875 30.46875 l -0.001,-1.68457 z m 62.403536,0.51537 c 0,-2.09753 -0.90479,-10.01389 -1.64103,-14.35814 C 106.39271,94.49087 99.261774,76.75323 89.006164,61.560581 l -2.33043,-3.452306 -0.91992,0.567665 c -10.66282,6.579853 -20.9267,12.02643 -29.04492,15.41284 -2.25586,0.941 -4.20361,1.79853 -4.32833,1.90561 -0.12473,0.10708 0.30805,1.89881 0.96174,3.9816 4.35907,13.88895 7.26487,29.81454 8.08119,44.28983 l 0.20239,3.58886 H 86.342244 111.0566 Z M -25.173866,40.549993 V 4.514836 h -0.6276 c -0.81488,0 -2.85526,1.743249 -8.56853,7.320747 -13.95565,13.624017 -25.06824,28.7778 -33.73245,45.999566 -1.97504,3.925746 -4.84114,10.33575 -4.68931,10.487571 0.27793,0.27794 10.51299,3.05639 14.6589,3.97937 10.03669,2.2344 23.26679,4.02027 31.4209,4.24136 l 1.53809,0.0417 z M -6.7168357,76.29223 C 6.2030343,75.34 18.082184,73.28806 29.937614,69.96074 32.577957,69.2197 34.896916,68.52657 35.090852,68.42043 35.733801,68.06858 30.608794,57.230098 26.087994,49.380982 18.119664,35.546198 8.7536543,23.450207 -2.6585757,12.255457 -8.7362557,6.293599 -10.789396,4.514836 -11.593186,4.514836 h -0.69006 V 40.549993 76.58515 l 0.80567,-5.9e-4 c 0.44311,-2.9e-4 2.5854503,-0.13188 4.7607403,-0.29221 z M -83.354206,60.105657 c 7.5326,-17.25612 18.84299,-34.630254 32.18396,-49.438477 1.37909,-1.530761 2.47517,-2.816054 2.43574,-2.856206 -0.0394,-0.04015 -1.77468,0.391109 -3.85612,0.958358 -22.834,6.222917 -43.39585,18.382558 -59.688634,35.298 l -3.75577,3.899311 2.27924,1.454022 c 3.39436,2.165396 10.27754,6.029886 14.753794,8.283363 3.36442,1.693749 13.27862,6.196477 13.78818,6.262175 0.0908,0.01172 0.92765,-1.725536 1.85961,-3.860546 z m 135.58492,1.942066 c 8.02754,-3.475655 18.02893,-8.722517 24.20759,-12.699618 l 2.14928,-1.38346 -3.95734,-4.088953 C 60.325004,29.094695 42.640414,17.854178 23.312464,11.257559 19.377944,9.91471 11.438564,7.646453 11.271014,7.817353 c -0.0359,0.03664 1.06439,1.319066 2.44513,2.849827 13.44431,14.904979 24.509948,31.938083 32.30828,49.731446 0.8651,1.973877 1.60737,3.588867 1.6495,3.588867 0.0421,0 2.09268,-0.872897 4.55679,-1.93977 z"
       style="fill:#ffffff;stroke-width:0.29296875" />
  </g>
</svg>
