<?xml version="1.0" encoding="UTF-8" standalone="no"?>
<svg
   xmlns:dc="http://purl.org/dc/elements/1.1/"
   xmlns:cc="http://creativecommons.org/ns#"
   xmlns:rdf="http://www.w3.org/1999/02/22-rdf-syntax-ns#"
   xmlns:svg="http://www.w3.org/2000/svg"
   xmlns="http://www.w3.org/2000/svg"
   width="79.372269mm"
   height="79.375mm"
   viewBox="0 0 79.372269 79.375"
   version="1.1"
   id="svg8">
  <defs
     id="defs2" />
  <metadata
     id="metadata5">
    <rdf:RDF>
      <cc:Work
         rdf:about="">
        <dc:format>image/svg+xml</dc:format>
        <dc:type
           rdf:resource="http://purl.org/dc/dcmitype/StillImage" />
        <dc:title></dc:title>
      </cc:Work>
    </rdf:RDF>
  </metadata>
  <g
     transform="translate(253.87818,-751.78229)"
     id="layer1">
    <path
       id="path903"
       d="m -215.80748,831.10978 c -6.72483,-0.28312 -13.06797,-2.1819 -18.81627,-5.63257 -1.83092,-1.0991 -3.7169,-2.45499 -5.25598,-3.77873 -0.51869,-0.44611 -0.67515,-0.61073 -0.88272,-0.9287 -0.4747,-0.72715 -0.68316,-1.52608 -0.68232,-2.61494 5.7e-4,-0.74886 0.0931,-1.42889 0.31409,-2.30783 1.07689,-4.28357 4.92037,-10.39872 10.96932,-17.45265 4.71058,-5.49321 10.54778,-11.16639 15.3006,-14.87068 0.68246,-0.53189 0.64568,-0.51021 0.75046,-0.44258 0.23213,0.14985 1.49895,1.15751 2.41015,1.9171 3.44269,2.86986 7.39589,6.67688 10.9,10.49694 5.93509,6.47022 10.38254,12.65692 12.47886,17.3589 0.54057,1.21252 1.01762,2.61851 1.18848,3.50287 0.14848,0.76853 0.19495,1.194 0.19642,1.79793 0.003,1.20393 -0.28427,2.13784 -0.88852,2.88941 -0.20548,0.25556 -0.66827,0.66589 -1.54061,1.36592 -5.56508,4.4659 -12.15962,7.33056 -19.17275,8.32863 -2.38522,0.33945 -4.93146,0.4694 -7.26921,0.37098 z m -29.93584,-15.59758 c -0.1047,-0.11443 -0.59022,-0.77571 -1.00752,-1.37224 -1.70101,-2.43158 -3.18567,-5.18555 -4.29976,-7.97581 -2.59469,-6.49849 -3.41546,-13.6332 -2.37212,-20.62004 0.80049,-5.36053 2.71625,-10.53283 5.60302,-15.12741 1.42946,-2.27514 2.98962,-4.28475 4.86014,-6.2603 0.79613,-0.84084 1.00954,-1.03537 1.22434,-1.11604 1.76538,-0.6631 5.13807,0.83832 9.35462,4.16439 1.1515,0.90832 2.2988,1.88794 3.60011,3.07397 1.39385,1.27033 3.17738,3.00402 3.17738,3.08857 0,0.0344 -0.27176,0.39366 -0.61332,0.81076 -4.14976,5.06753 -8.85175,12.01179 -12.36616,18.26329 -3.54625,6.30816 -5.87786,11.79581 -6.82908,16.07287 -0.18737,0.84245 -0.35145,1.84015 -0.43844,2.6659 -0.0622,0.59038 -0.0524,2.20608 0.0163,2.6969 0.0636,0.45386 0.18407,1.04219 0.26883,1.31257 0.0732,0.23329 0.0768,0.34855 0.0116,0.37355 -0.0837,0.0321 -0.12387,0.0213 -0.18996,-0.0509 z m 62.89375,0.0326 c -0.053,-0.053 -0.0471,-0.11365 0.0399,-0.41392 0.23128,-0.79809 0.30678,-1.43489 0.30854,-2.60227 0.002,-1.0012 -0.0194,-1.30382 -0.15723,-2.27841 -0.64777,-4.57907 -3.21764,-10.91134 -7.43505,-18.32027 -3.53676,-6.21323 -8.09741,-12.90863 -12.1903,-17.89636 -0.27736,-0.33799 -0.50428,-0.63503 -0.50428,-0.66006 0,-0.025 0.0663,-0.11642 0.14724,-0.20307 0.17918,-0.19176 1.96434,-1.90562 2.56515,-2.46273 4.30016,-3.98733 7.91351,-6.52656 10.60734,-7.45417 1.16819,-0.40227 2.10656,-0.47351 2.81513,-0.21377 0.16989,0.0623 0.23978,0.12224 0.80685,0.69245 2.40282,2.4161 4.59587,5.347 6.34698,8.48247 0.42766,0.76575 1.22815,2.37079 1.58468,3.17738 2.76425,6.25354 3.86475,13.07335 3.20894,19.88572 -0.69072,7.1752 -3.2542,13.87786 -7.54021,19.71524 -0.43855,0.5973 -0.50104,0.65442 -0.60368,0.55177 z m -31.93495,-51.99994 c -0.62986,-0.38109 -1.60709,-0.94291 -2.29391,-1.3188 -4.81421,-2.63476 -9.18889,-4.30389 -12.64752,-4.82556 -1.48067,-0.22334 -2.9805,-0.22453 -4.08428,-0.003 -0.17129,0.0343 -0.33319,0.0541 -0.35979,0.0439 -0.0584,-0.0224 -0.0902,-0.10989 -0.0643,-0.17724 0.0104,-0.027 0.25131,-0.18048 0.53543,-0.34099 2.70997,-1.53102 5.5251,-2.71564 8.49347,-3.57409 5.48738,-1.58692 11.32382,-1.96311 17.02363,-1.09725 4.7593,0.72298 9.30415,2.29806 13.5221,4.68625 0.26791,0.15169 0.49591,0.29002 0.50665,0.30741 0.0297,0.048 -0.0109,0.17397 -0.0623,0.1937 -0.025,0.01 -0.18883,-0.0103 -0.36396,-0.0443 -0.80799,-0.15663 -2.06609,-0.20769 -3.01643,-0.12242 -3.18331,0.28563 -7.12141,1.59553 -11.65554,3.8769 -1.51588,0.76273 -2.83986,1.48971 -4.26794,2.34349 -0.35271,0.21087 -0.65965,0.38275 -0.68209,0.38194 -0.0224,-8e-4 -0.28489,-0.14917 -0.58325,-0.32969 z"
       style="fill:#ffffff;stroke:#ffffff;stroke-width:0.03099879" />
  </g>
</svg>
