<?xml version="1.0" encoding="UTF-8" standalone="no"?>
<svg
   xmlns:dc="http://purl.org/dc/elements/1.1/"
   xmlns:cc="http://creativecommons.org/ns#"
   xmlns:rdf="http://www.w3.org/1999/02/22-rdf-syntax-ns#"
   xmlns:svg="http://www.w3.org/2000/svg"
   xmlns="http://www.w3.org/2000/svg"
   xmlns:sodipodi="http://sodipodi.sourceforge.net/DTD/sodipodi-0.dtd"
   xmlns:inkscape="http://www.inkscape.org/namespaces/inkscape"
   viewBox="0 0 500 175.44554"
   height="175.44554"
   width="500"
   xml:space="preserve"
   id="svg2"
   version="1.1"
   inkscape:version="0.91 r13725"
   sodipodi:docname="3DOCompany logo.svg"><sodipodi:namedview
     pagecolor="#ffffff"
     bordercolor="#666666"
     borderopacity="1"
     objecttolerance="10"
     gridtolerance="10"
     guidetolerance="10"
     inkscape:pageopacity="0"
     inkscape:pageshadow="2"
     inkscape:window-width="1920"
     inkscape:window-height="1027"
     id="namedview4410"
     showgrid="false"
     fit-margin-top="0"
     fit-margin-left="0"
     fit-margin-right="0"
     fit-margin-bottom="0"
     inkscape:zoom="0.949804"
     inkscape:cx="103.86255"
     inkscape:cy="-43.045297"
     inkscape:window-x="-8"
     inkscape:window-y="-8"
     inkscape:window-maximized="1"
     inkscape:current-layer="svg2" /><metadata
     id="metadata8"><rdf:RDF><cc:Work
         rdf:about=""><dc:format>image/svg+xml</dc:format><dc:type
           rdf:resource="http://purl.org/dc/dcmitype/StillImage" /><dc:title></dc:title></cc:Work></rdf:RDF></metadata><defs
     id="defs6"><clipPath
       id="clipPath30"
       clipPathUnits="userSpaceOnUse"><path
         id="path28"
         d="m 1244.87,3487.99 c 0,300.51 242.88,544.01 542.63,544.01 299.75,0 542.63,-243.5 542.63,-544.01 0,-300.49 -242.88,-543.99 -542.63,-543.99 -299.75,0 -542.63,243.5 -542.63,543.99"
         inkscape:connector-curvature="0" /></clipPath></defs><g
     id="g4958"
     transform="matrix(1.5204501,0,0,1.5204501,-97.33026,-760.58085)"><path
       inkscape:connector-curvature="0"
       d="m 99.714108,554.29637 0,0.33395 c 14.333862,0.28077 24.917182,3.28078 31.749982,9.00118 6.83334,5.7204 10.25054,12.63514 10.25054,20.74084 0,9.05438 -3.88334,16.52951 -11.66667,22.40839 -7.76667,5.89587 -18.11719,8.84381 -31.017719,8.84381 -11.149466,0 -19.766133,-2.35245 -25.866666,-7.037 -6.099466,-4.68456 -9.149465,-10.01893 -9.149465,-16.02119 0,-3.98267 1.366666,-7.21137 4.100532,-9.651 2.7328,-2.43849 6.016133,-3.6487 9.833333,-3.6487 3.582266,0 6.666666,1.06983 9.216666,3.19248 2.5656,2.14189 3.832267,4.96643 3.832267,8.4589 0,4.66756 -2.966667,8.58003 -8.916667,11.73853 -1.1656,0.61472 -1.766666,1.31549 -1.766666,2.08869 0,1.43775 1.666666,2.70228 5.017733,3.7902 3.333333,1.08793 6.7328,1.61435 10.232266,1.61435 11.450526,0 17.183326,-8.86192 17.183326,-26.58295 0,-17.54724 -6.88227,-26.32086 -20.632259,-26.32086 l -11.417733,0.48964 c -2.299466,0 -3.466666,-0.89435 -3.466666,-2.68248 0,-2.05528 1.216666,-3.09113 3.634399,-3.09113 l 8.316134,0.33396 c 8.482799,0 14.166665,-1.98228 17.049995,-5.96606 2.9,-3.96568 4.3328,-9.6159 4.3328,-16.95064 0,-7.54532 -1.08334,-13.10709 -3.26614,-16.65163 -2.18386,-3.56279 -5.93386,-5.33437 -11.233322,-5.33437 -2.883333,0 -5.599467,0.50958 -8.133333,1.54275 -2.533334,1.01914 -3.816134,2.01865 -3.816134,3.01953 0,0.92931 0.833334,1.89511 2.5,2.89601 4.3656,2.92969 6.566134,6.10504 6.566134,9.52745 0,3.36893 -1.216134,6.0361 -3.666667,8.03649 -2.45,1.98341 -5.200533,2.98304 -8.2672,2.98304 -3.5328,0 -6.6828,-1.14113 -9.449466,-3.40417 -2.7672,-2.28114 -4.166666,-5.08856 -4.166666,-8.47447 0,-5.7555 3.083866,-10.74032 9.249999,-14.93341 6.166666,-4.21274 14.066133,-6.31701 23.733865,-6.31701 10.68333,0 19.68332,2.38642 27.01612,7.14103 7.35,4.756 11.01613,10.8442 11.01613,18.30233 0,14.66837 -12.98333,23.53029 -38.932782,26.58352"
       style="fill:#000000;fill-opacity:1;fill-rule:nonzero;stroke:none"
       id="path18" /><path
       inkscape:connector-curvature="0"
       d="m 168.11343,608.1132 0,-100.89679 -15.032,0 0,-5.45509 60.23199,0 c 17.41734,0 31.216,5.19398 41.368,15.5988 10.14934,10.38783 15.232,23.51317 15.232,39.35776 0,8.21211 -1.54933,15.95102 -4.64933,23.16237 -3.1,7.22947 -7.86667,13.81024 -14.3,19.72309 -6.43467,5.91399 -13.03333,9.72118 -19.8,11.42383 -6.76667,1.70151 -15.06667,2.54378 -24.93333,2.54378 l -53.14933,0 0,-5.45775 z m 28.98399,-100.89679 0,100.89679 9.38267,0 c 14.35067,0 23.01733,-3.96456 26,-11.87892 2.984,-7.93136 4.468,-21.4767 4.468,-40.6564 0,-15.00178 -0.91867,-25.79446 -2.75067,-32.34014 -1.816,-6.56126 -4.6,-10.87929 -8.31733,-12.93021 -3.716,-2.05513 -8.44933,-3.09112 -14.16667,-3.09112 l -14.616,0"
       style="fill:#000000;fill-opacity:1;fill-rule:nonzero;stroke:none"
       id="path20" /><path
       inkscape:connector-curvature="0"
       d="m 286.73076,557.24599 c 0,-16.72476 5.232,-30.41036 15.73333,-41.06224 10.48266,-10.63222 23.06666,-15.94974 37.732,-15.94974 13.61733,0 25.80133,5.00026 36.55066,15.00219 10.752,10.00192 16.11734,24.23219 16.11734,42.6749 0,17.2846 -5.06667,31.1458 -15.23334,41.56998 -10.16666,10.42306 -22.58266,15.63515 -37.24933,15.63515 -15.85067,0 -28.76667,-5.54605 -38.716,-16.60081 -9.952,-11.05477 -14.93466,-24.8118 -14.93466,-41.26943 z m 73.16666,0.47265 c 0,-17.12611 -0.33333,-28.40955 -1,-33.84779 -0.68267,-5.4593 -2.41733,-9.8461 -5.216,-13.18008 -2.80133,-3.33258 -7.41733,-5.00027 -13.83333,-5.00027 -5.41734,0 -9.73334,1.35043 -12.95067,4.03586 -3.216,2.70228 -5.216,7.01891 -6.01733,12.96811 -0.78267,5.94783 -1.18267,17.5641 -1.18267,34.8487 0,17.108 0.332,28.44351 1.016,33.97034 0.66667,5.52794 2.468,9.93286 5.384,13.21363 2.91733,3.28077 7.5,4.91323 13.75067,4.91323 5.18133,0 9.416,-1.31548 12.68133,-3.94756 3.268,-2.6502 5.31867,-6.93174 6.13467,-12.87968 0.83333,-5.94908 1.23333,-17.65254 1.23333,-35.09449"
       style="fill:#000000;fill-opacity:1;fill-rule:nonzero;stroke:none"
       id="path22" /></g></svg>